<?xml version="1.0" encoding="utf-8"?>
<!-- Generator: Adobe Illustrator 22.1.0, SVG Export Plug-In . SVG Version: 6.00 Build 0)  -->
<!DOCTYPE svg PUBLIC "-//W3C//DTD SVG 1.1//EN" "http://www.w3.org/Graphics/SVG/1.1/DTD/svg11.dtd">
<svg version="1.1" id="Layer_1" xmlns="http://www.w3.org/2000/svg" xmlns:xlink="http://www.w3.org/1999/xlink" x="0px" y="0px"
	 viewBox="0 0 690 652" style="enable-background:new 0 0 690 652;" xml:space="preserve">
<style type="text/css">
	.st0{fill:#93D0F4;stroke:#0093DD;stroke-width:3.663811e-02;}
	.st1{fill:#FDFCEA;}
	.st2{fill:#C12838;}
	.st3{fill:none;stroke:#646464;stroke-width:3;stroke-linejoin:round;stroke-miterlimit:3.864;}
	.st4{fill:#D7EEFF;stroke:#D7EEFF;stroke-width:0.5;}
	.st5{fill:none;stroke:#000000;}
</style>
<path class="st0" d="M0,0h690v652H0V0z"/>
<path class="st1" d="M529.7,356.8c0.6,0.4,1.5,0.6,2,1c0.3,0.2,0.6,0.7,0.8,0.9c-0.9-0.3-2-0.9-2.7-1.5l-0.3,0.2l-0.7,0
	c-0.2-0.8-1.5-1.2-2.2-1.3c-0.2,0-0.5,0-0.7,0c-0.5-0.1-1.2-0.5-1.7-0.7c-0.1-0.1-0.3-0.4-0.5-0.4c-1.1-0.6-2.6-0.7-3.8-1.1
	c0,0-0.3-0.3-0.4-0.3l0.3-0.7c0.7-0.1,1.9,0.5,2.3,1c0.4,0.1,1,0,1.3-0.3c0.8,0.3,1.9,0.5,2.6,0.9c0.4,0.2,0.8,0.7,1.2,1
	C528.2,355.9,529,356.4,529.7,356.8L529.7,356.8z M513.6,423.7l-0.6,0.4l-0.2-0.2v-0.4c0.2-0.2,0.8-0.4,1.1-0.4l0.2,0.2l0.1,0.3
	l-0.3,0.3L513.6,423.7L513.6,423.7z"/>
<path class="st2" d="M442.8,524l0.3,0.5l-0.2,0.5c-0.2-0.2-0.5-0.4-0.7-0.7c0-0.3,0-0.7-0.2-0.9l0.1-0.2l-0.3-0.4
	c0-0.2-0.1-0.5-0.2-0.6l0.3-0.2l0.2,0.7l0.6,0.3l0.3,0.5L442.8,524L442.8,524z"/>
<path class="st1" d="M437.9,52.4l0.2-0.2l0.6,0.1l0.8-0.5l0.4,0.1c0.2-0.6,0.9-1.3,1.5-1.5l1.5,0.2l0.7-0.4l0.7,0.2
	c0.4,1.3,1.5,3.1,2.4,4c0.8,0.8,3.6,2.6,4.7,3.5c0.5,0.4,1,1,1.5,1.4c0.8,0.6,2,1.2,2.7,1.9c0.9,0.9,1.5,2.2,2.3,3.2
	c0.3,0.4,5.3,4.7,5.4,4.8c0.8,0.5,5.4,2.7,6.4,3c0,0,0.9,0.1,1,0.1c1.2,0,2.8-0.5,3.6-1.4c0.1-0.8-0.3-1.4,0.2-2.2l0.9-0.3
	c1.4,0.5,4.5,1.9,5.8,2.2c0,0,1.6-0.2,1.7-0.2l1.4,0.9c0.5,0,2.7,0.3,3,0c0.1,0.4,0.5,1.3,0.9,1.5l0.7-0.4l-0.5-1.2l0.5,0.1
	c0-1,0.8-2.1,1.7-2.5l0.7,0.5c0.9-0.1,3.6-0.5,4.4-1l1.1-1c0,0,1.4-1.2,1.4-1.3c1-0.5,2.4-1,3.4-1.2c1.7-0.4,3.5-0.4,5.1-1.1
	l0.7-1.5l1.7-1.2l2,0l0.5,0.7l1.2,0.2c0.5-0.5,1.5-0.8,2.2-1l0.9,0.3c0.6-0.2,1.4-0.2,2-0.2c0.6-0.7,1.7-0.4,2.4-0.4
	c0.7,0,2.5-0.3,3,0l1-0.5l0.2,0.1l0.3-0.1c0.2,0.1,0.6,0.4,0.7,0.6c0.2,0,2.9,0.5,3,0.5c0.9,0.4,2.8,1.2,3.4,1.9
	c0.7-0.3,2.5,0.5,3,0.9l0.7,1.2c2.5,1.5,5.8,2,8.6,2c0.5,0.6,0.2,1,0.3,1.3c0.2,0.8,1.4,3.8,2.1,4.2c0.8,0.3,1.9-0.3,2.4,0.1
	l0.6-0.4l0.5,0.3l0.5,0c1,0.5,1.4,1.6,2.1,2.3c0.2,0.2,0.6,0.1,0.8,0.6l-0.3,0.5c-0.6,0.2-1.3,0.8-1.7,1.2l0.8,0.9l0.1,1.2l-0.5,0
	c-0.2,0.7-0.5,1.5-0.9,2.1l-0.7,0.2l-0.8-0.5c-0.7,0-1.8,0.5-2.1,1.1c-0.8,1.5-1.5,3.5-2.1,5.1c-0.2,0.7-0.3,1.6-0.5,2.3
	c-0.4,1-1.3,2-1.6,3c-0.4,1.5-0.4,3.2-0.7,4.8c-0.2,1.1-1,2.6-1,3.7c-0.1,1.2,0.3,10.7,0.9,12c0,0,2.3,3.6,2.3,3.6
	c0.1,0.1,1.8,1.4,2,1.6c0.2,1.5,1.9,2.2,3,2.9c-0.1,0.3,0,0.9,0.2,1.2l0.4,0.3l0,0.4l0.3,0.1l-0.2,0.3l0.1,0.3l-0.3,0.3l0.4,0.5
	c-0.7,0.5-0.7,2-0.8,2.8l0.2,0.2l0.5,1.9l0.4,0l0.1,0.3l-0.4,0.5l1,10.4l0.2,0.2c3.5,5.2,2.2,3,7,5.6l0.7,1.2
	c-0.3,0.8-1.8,2.2-2.8,2.4c-0.5,0.4-1.8,4.4-2,5.2l0.2,0.2c0.2,1.1-0.6,2.2-0.7,3.3c0,0.4,0.1,0.8,0.1,1.2c0,1.1-0.3,2.4-0.3,3.5
	c0.1,2,0.6,6,1,7.9l0.9,2.2c1.4,3.6,1.1,2.2,0.6,6.6c0,0.2,0.1,0.8,0.2,1c0.2,1.7,0.6,3.5,0.8,5.3c0.1,0.7-0.1,1.5-0.1,2.3
	c0,1.1,0.2,2.3,0.3,3.4c-1.5,0-9.1-0.1-12.7-1c-4-1-11,3-11,3h-18c-4,0-8,1-12,2s-10,4-26,1s-33,3-33,3s-11,1-15-1s-8,0-12,0
	c-3.1,0-7.4,1.2-12,4.5l-2-42.5c0,0,0-7,2-11s4-10,4-10v-18c0,0-4-2-4-7s2-12-4-14s-5-2-9-6s-7.6-11.2-7.6-11.2l-0.1-0.2
	c1-0.7,1.9-1.7,2.5-2.2c0.9-0.7,1.9-1.4,2.8-2.1c0.2-0.9,0.4-1.9,0.4-2.9c0.5-0.4,3.2-1.8,3.1-2.6l0.5-0.4c0.4,0,1.1,0,1.4-0.2
	l-0.4-0.3l0.9-1.7c2.3-0.2,3-1.8,4.6-2.1c1.5-0.3,3.4-0.1,4.6-1.2c0.3-0.5,0.5-1.1,0.5-1.7l-0.2-0.3l0.2-0.3l-0.1-0.5l0.1-0.4
	l0.5-0.4c1.1,0.4,4.9-0.3,5.6-1.4l-0.5-0.5h0.4l0.1-0.3l0.2,0l-0.1-0.5c0.1-1,1.4-0.9,1.7-1.3l0.2-0.6c0.1-0.2,0.5-0.3,0.7-0.4
	l0.5,0.2l0.2-0.3l0.3,0.1l0.2-0.5c0.5-0.1,0.8-0.5,1.2-0.6c2.1-0.6,4.7-0.6,5.1-2.9c-0.2-0.1-0.5-0.9-0.6-1.1c0.6-0.5,0.5-1.3,0.4-2
	l0.5-0.9l0.6-0.1c0.5,0.4,1.1,0.9,1.7,1.1c0.7-1,2.9-2,4.1-2.4l0.6-0.9c0.6,0.4,2.4,1.5,3.2,1.4l0.6-0.2l0.3,0.7l1.5,0.5l0.9-0.3
	l0.7,0.2L437.9,52.4L437.9,52.4z"/>
<path class="st1" d="M383.5,84.8c0.7,0.2,1.5-0.1,2.3-0.7l0.1,0.2c0,0,3.6,7.2,7.6,11.2s3,4,9,6s4,9,4,14s4,7,4,7v18c0,0-2,6-4,10
	s-2,11-2,11l2,42.5c-1.4,1-2.8,2.2-4,3.5c-6,6-6,17-6,17l-8,11l-1.3,2.5l-0.1,0c0,0-19.6-18.5-23.6-21.5s-8-7-13-9s-7-6-11-10
	s-4-4-12-7s-15-5-20-5S291,178,291,178l-0.4,0.2c-0.6-1.7-0.4-2.7-0.5-4.3c0-0.1-0.3-0.6-0.3-0.7c0-0.2,0-2,0-2.1
	c0.1-0.4,0.4-0.9,0.5-1.3c0.1-1,0.1-3.2-0.4-4.1c0.3-0.4,1-0.7,1.4-0.8c0.1-0.3,0.5-0.8,0.8-1l0.1-0.5c1.3-1,2.2-0.9,2.9-1.2
	c1.5-0.8,3.2-2,4.6-3.1l1.1-1.2c1.5-1.7,1.7-2.6,2.2-4.7l0.2-1.1c0.2-0.6,1.2-2,1.6-2.5c1-1.3,2.5-0.9,3.6-1.7
	c0.7-0.5,1.3-1.3,2-1.9c1.1-0.9,2.4-1.6,3.6-2.4c0.4-0.2,1.3-0.2,1.7-0.1c0,0,0.2-0.2,0.3-0.2c2.8-0.5,6.1-0.7,8.6-2.2
	c0.3-0.7,1.7-2.4,2.4-2.6c2.8-1,5.7-2,8.3-3.6c0.4-1.6,0.5-2.8,1.8-3.7c0.3-0.3,0.7-0.6,0.9-0.9l-0.1-1.2c2-1,3.7-3.2,4.8-5.1
	l0.5-0.1c0.7-1,1-2.7,2-3.4c-0.1-0.5,0.3-1.2,0.5-1.6l-0.2-0.8l0.3-0.6c0.8-0.4,1.9-1.4,2.5-2.1l0.2-1.4L348,113
	c0.1-1,0.7-1.8,1-2.8c0-0.1,0-0.6,0-0.7c0.2-0.6,0.7-1.2,1-1.8c1-0.4,2.4-0.7,3.3-1.2c0.6-0.4,1.2-1.2,1.8-1.6
	c0.3-0.2,0.5-0.2,0.9-0.3l1.7-0.6c2.3-0.6,3,0,5.2-1.6c0.3-0.7,0.8-1.4,1.3-2.1c0-0.1-0.1-0.7-0.1-0.7c0.5-1.2,0.9-3.3,2.3-4
	c-0.2-0.8,0.3-2.6,0.5-3.3c0-0.1,0.6-0.7,0.7-0.8l-0.1-0.8c0.7-0.9,2.4-2.8,3.6-3.1c0.2,0,0.6,0.2,0.8,0.3c0.4-0.3,1-0.1,1.4,0.1
	c0.5-0.1,1-0.6,1.3-1l0.5,0c0.3-0.5,1.3-1,1.9-1l0.2-0.3c0.8-0.2,1-1,1.8-1.1c0.8-0.2,1.8,0.1,2.4-0.8l1.8,0.5L383.5,84.8
	L383.5,84.8z"/>
<path class="st2" d="M359.8,547.6l-0.2,0.4l0,0.3l-0.4-0.2l-0.2-0.6l0.2-0.5l0.6-0.2l0.4,0.3l-0.1,0.4L359.8,547.6z M323.5,549
	l2-1.8c0.8,0.7,1.6,2.4,2.2,3.4c0.1,0.1,0.1,0.7,0.2,0.9c0.1,0.2,0.4,0.5,0.5,0.7c0.5,1,0.1,1,1.4,1.4c0.2,0.1,0.7,0.3,0.9,0.3
	l3.7,0.3c0.6,0.1,1.1,0.4,1.7,0.5c0.4-0.2,0.8-0.4,1.1-0.6c0-0.4-0.2-1-0.4-1.4l-0.6,0.1l-0.5-0.3l-1,0.2l-0.1-0.5l0.2-0.4
	c0.9,0.3,1.9,0.4,2.8,0.6l0.3,0.4c0.3-0.1,0.9,0.2,1.2,0.4l1.8-0.4l0.4,0.2l1-0.1c0.4,0.4,1,0.9,1.6,1.2c0,0.8,0.3,2.4,0.8,3.1
	l0.6-0.1l0.5-0.4l0.7,0.3l1-0.2l0.3,1.4l0.9,0.7l0.4,0l0.3,0.8l-0.5,0.6l-0.5-0.1c-0.5,0.2-2.1,2.2-2,2.6l0.3,0.2
	c0,0.8-0.6,1.2-1,1.7c-0.9-0.3-1.7,0.4-2.7-0.1l-0.2,0.4l-1-0.7c-0.8-2.7-1.5-3.8-3.2-5.9l-1,0.1l-0.3-0.3c-1.3,0.3-2.6,0.4-3.9,0.8
	c-0.8-1.3-3-0.6-4.3-0.8c-1-0.5-1-1.4-1.6-2.1c-0.4-0.4-1.2-0.5-1.5-1.2l-0.7-0.1c-0.1-0.3-0.3-0.7-0.5-0.9l-0.4-0.1l-0.3-0.5
	l-0.9-0.1c-0.9-0.8-2-1.6-3.2-1.8c-0.1-0.2,0-0.7,0.2-0.8c0.7,0.3,2.4,1.5,3.1,1.4l0.3-0.3L323.5,549L323.5,549z"/>
<path class="st1" d="M305.8,572c0.8,0.2,1.4,2,0.6,2.5l-0.2,0c-0.1-0.1-0.6-1.1-0.6-1.1c0-0.1,0-0.3-0.1-0.4c0-0.3,0-0.6,0-0.9
	l0.1-0.1L305.8,572L305.8,572z M303.9,586.9c-0.1,0.1-0.3,0.2-0.3,0.4l-0.4,0.1c-0.2-0.2-0.5-0.2-0.6-0.4c0-0.2-0.1-0.4-0.1-0.5
	l-0.2-0.1l0-0.4l-0.1-0.1l-0.2-0.6l0.1-0.2l0.4-0.1l0.3,0.2l0.2,0l0.5,0.2c0.3,0.4,0.4,1.2,0.7,1.4L303.9,586.9L303.9,586.9z
	 M286.1,598.3c-0.1,0.1-0.3,0.2-0.5,0.1l-0.2-0.2c-0.1-0.3-0.1-0.5,0-0.7c-0.1-0.2-0.3-0.4-0.5-0.5c0.2-0.9,0-1.3-0.4-2.1
	c0.3-1.2,0.2-1.2-0.6-1.8l0-0.2l0.1-0.1c0-0.3-0.1-0.5-0.4-0.7l0-0.2l-0.1-0.4c-0.2,0-0.4-0.2-0.5-0.3c-0.4,0-0.7-0.2-1.1-0.1
	c-0.2-0.2-0.4-0.5-0.7-0.6v-0.3c0.3-0.3,0.8-0.4,1.2-0.5c0.3-0.6,1.3-2.7,0.9-3.4c-0.1-0.3-0.4-0.5-0.5-0.8
	c-0.3-0.5-0.3-1.2-0.6-1.8c-0.1,0-0.3,0-0.4,0l-0.2-0.1v-0.2c0.2,0,0.4-0.1,0.5-0.2c-0.1-0.4-0.1-1.1,0.3-1.4
	c0.2-0.1,0.6-0.1,0.8-0.1c0.2-0.3,0.4-0.8,0.7-1l0-0.4l0.2,0.5c0.5-0.2,0.8-0.8,1-0.8c0.3-0.1,0.4,0,0.7-0.2
	c0.3-0.1,1.1,0.5,1.5,0.2c0-0.2,0-0.4,0.1-0.5c0.1-0.1,0.3-0.1,0.4-0.1c0.2,0,0.3,0.1,0.4,0.2c0,2.1,1.9,3,1.8,4.2l-0.1,0.2
	l-0.4,0.1c-0.1,0.2-0.7,1.4-0.9,1.5c-1.1,0.2-2,1.4-2,2.5c0,0.5,0.2,0.8,0.2,1.2c0,0.6,0,1.3,0.1,1.9c0.5,0.5,1.2,1,1.8,1.4
	c1.1-0.4,1.1,1.1,1.8,1.1c0.9,0.1,1.5-0.9,2.1-0.7l0.2,0.2c0,0.4,0,1.1,0,1.4c0,0.2-0.3,0.4-0.2,0.7c0.3,0.3,0.6,0.6,0.9,0.8l0,0.2
	l-0.4-0.1l-0.2,0.1c0,0.7,0.3,0.8,0.5,1.4l-0.3,0.1l-0.3-0.3l-0.3,0l-0.2,0.2l0,0.3l-0.1,0.1l-0.3,0l-0.3,0.3
	c-0.1,0.6,0,1.7,0.5,2.1c0.1,0,0.3,0.1,0.4,0.2v0.2l-0.2,0.2c0,0.2-0.1,0.4-0.1,0.7c-0.2,0.1-0.4,0.2-0.6,0.3
	c-0.2-0.2-0.4-0.4-0.6-0.6l0-0.4c-0.1-0.1-0.2-0.3-0.4-0.4c0-0.4,0-0.9-0.1-1.3c-0.2-0.3-0.5-0.5-0.8-0.7c-0.2,0-0.4,0-0.5,0.1
	l-0.2,0.2l-0.2-0.3l-0.2-0.1l-0.1,0.1l-0.3,0l-0.2,0.2l-0.2-0.2l-0.2,0.1l0,0.2c-0.2-0.1-0.5-0.2-0.7-0.2l-0.2-0.1l-0.1-0.2
	l-0.3-0.2l0-0.2l-0.2-0.1l0,0.2L286.1,598.3L286.1,598.3z M260.9,577.1c0,0.2,0,0.4,0.1,0.5c0.5,0.1,0.9,0.4,1.4,0.4
	c0.2,0.3,0.4,0.6,0.7,0.8c0.5-0.1,1-0.2,1.4,0.1c0.2,0,1.2-0.8,1.5-0.9c0.3-0.1,0.6,0.2,0.9,0.1l0.2-0.4l0.2-0.1
	c0.2,0.2,0.6,0.4,0.9,0.5l0.2,0.4v0.5c-0.3,0.2-0.8,0.4-1.2,0.5l-0.6,0.6l0.1,0.3l-0.4,0.5l-0.4-0.2c-0.8,0-2.4,1.1-2.6,1.8l0.5,0.6
	l-0.2,2.8c-1,0.7-0.9,1.4-1.5,1.8l-0.2,0c-0.2,0-0.3-0.1-0.5-0.2c-0.2,0-0.6,0.1-0.8,0c-0.8-0.6-1.6-1.9-2.7-2.1
	c-0.6-0.1-1.3,0.1-1.9-0.1c-1-1.4-2.2-1.5-3.7-1.1l-0.4-0.2c-0.2-0.3-0.4-0.8-0.5-1.2c0-0.4,0.8-1.2,1.1-1.4
	c-0.1-0.3-0.3-0.9-0.3-1.3l0.4-0.4l0.6,0c0.2-0.2,0.6-0.5,0.9-0.6c0.3-0.3,0.5-0.7,0.4-1.1c0.2-0.3,0.9-0.4,1.3-0.3l0.3-0.3l0-0.3
	c0.8-0.4,1.3,0.1,2.2-0.7l0-0.6c-0.8-0.8-0.5-1.7-1.1-2.5c-0.4-0.6-1.2-1.3-1.7-1.9l0-0.3c0.5-0.5,1.7-0.5,2.4-0.3l1.2-0.6
	c0.1-0.5,0.6-1.2,1.1-1.3l0.6,0.9l0.8-0.1c1.5,0.6,2.8,1.8,3,3.4l-0.7,1.4l-0.4,0.2c-0.3,0.7-1.9,2.1-2.5,2.2L260.9,577.1
	L260.9,577.1z M238.2,326.2l-0.6,0l-0.6,0.4l-0.4-0.1l-0.3-0.4l0.2-0.5c0.3,0,0.8,0.2,1,0.3l0.3-0.1l0.2-0.6c0-0.6-0.5-1.4-0.9-1.7
	l-0.9-0.3l-0.4-0.9c0.4-0.2,0.7-1,0.7-1.3c-0.6-1.2,0.7-1.9-0.5-3.3h-0.9l-0.9-1.5l0.4-0.8l-0.2-1c-0.4-0.2-0.7-1-0.8-1.5
	c-1.1-0.9-2.4-0.9-3.3-1.4c-0.2-0.1-1.4-1.5-1.7-1.7c-0.4-0.3-0.9-0.5-1.3-0.8c-0.4-0.3-0.6-0.8-0.9-1.1h-0.3c0-0.5,1-3.4,1.2-3.8
	l0.5-0.1c0.1,0.1,0.4,0.3,0.5,0.4c1,0,2.3-1.8,2.7-2.6l0-0.9c-1.4-1.7-0.9-2.2-0.1-4c0.5-1.4,1.3-2.8,2.1-4c0.6-0.9,2.5-2,2.8-2.6
	l0.2-0.5c-0.5-1.5-1.3-1.4-1.8-2.3v-1.4l0.3-0.1l0.5-1.3l0.3,0c1-1.3,3.2-2.6,3.3-2.6c0.5-0.6,1.3-1.4,1.7-2c0.3-0.6,0.7-2.2,0-2.8
	l0.1-1.3l0.5-0.6c1.3-0.1,1.8-1.7,2.6-2.5c0.1-0.1,0.6-0.3,0.7-0.4c0.7-0.6,1.6-1.5,2.2-2.3c0.3-0.4,0.6-1.2,0.8-1.6
	c-1.6-3,0.5-5.2-0.2-6.3c-1.7-1-0.7-2.6,0-3.8c0.5-0.9,1.1-1.9,1.8-2.7l0.1-1.1c0.5-0.7,1.9-1.8,2.8-1.7l0.6,0.3
	c4.8-2.4,6.4-3.1,9.8-7.2c1-1.2,0.6-2.6,2-4.4c1.1-1.4,2.1-1.8,2.6-3.9c0.2-0.9-0.3-1.7-0.2-2.5c0.3-1.7,1.2-3.1,1.7-4.8
	c0.3-1,0.2-2.2,0.5-3.1c0.2-0.7,2.3-2.7,2.7-3.8c0.4-1.1,0.2-2.3,0.6-3.4c0.3-0.9,1.1-1.8,1.4-2.7c1-3.1-1.4-6.2-1-9.2
	c0.2-1.6,0.8-3.3,1.6-4.6c0.5-0.8,1.2-1.3,1.6-2.3c3.5-0.5,4.8-1.3,7.2-3.6l0-0.7c2-1.3,1.8-6.5,3.7-7.2c0-1,0.4-1.7,0.6-2.7
	l0.4-2.1c0.1-0.4,0.1-0.6,0.2-1c0-0.1,0.9-1.6,1-1.8c0.1-0.1,0.1-0.2,0.1-0.3h0.4c0-0.3-0.1-0.5-0.2-0.8l0.7-0.7l0.1-0.4l0.4-0.2
	l0.4-1c0-0.1-0.1-0.2-0.1-0.3l0.4-0.2c0,0,11.5,7.5,16.5,7.5s12,2,20,5s8,3,12,7s6,8,11,10s9,6,13,9s23.6,21.5,23.6,21.5l0.1,0
	l-18.7,36.5c0,0-16,18-20,21s-4,7-4,7l1,26c0,0-0.6,2.2-1.3,5.1l-0.1,0l-53.6-4.1l-48.4,3.4L242,333l-0.9-0.8l-0.5-2.2l0.3-0.7
	l0.3-0.1c0.2-0.5,0.1-1.5-0.3-2C240.1,327.4,238.8,326.8,238.2,326.2z M187.5,587.3l0.2,0.4l-0.8,0.1l0.1-0.5L187.5,587.3z
	 M187.3,585.3l-0.1,0.3l-0.4,0.2c-0.1-0.2-0.1-0.6,0-0.8L187.3,585.3z M154.5,608.9c-0.5,3.5-1.3,1.7-2.9,2.9
	c-0.6,0.5-1.3,1.4-1.8,1.9l-0.3-0.1c-0.5-1.3,0.2-2.2,1.1-3.1c0.1-1.1,0.3-2.3,0.6-3.4l1.9-1.1v0.5l0.4,0.4l0.6,0.1l0.4,0.5
	l-0.2,0.9L154.5,608.9L154.5,608.9z"/>
<path class="st1" d="M155.2,581.5c-1.6-0.5-2.9,0.3-4.6-0.1c-0.4,0.2-0.5,1.1-0.5,1.5c-0.1-0.7-0.7-1.1-1.1-1.7l-0.7,0.1l0.9-0.7
	l0.2-1c-0.3-0.8-2.3-2.2-3-2.4c-1.3-0.5-4.6-1.5-5.9-1.8c-1.1-0.2-2.8,0-3.9,0c-0.1,0.2-0.6,0.6-0.9,0.6l-0.4,0.5l-0.3-0.3
	c-0.1-0.2-0.2-0.6-0.2-0.8c-1.3-0.6-2.5-0.1-3.8-0.2c-1.2-0.1-4.3-1.1-5.2,0.3c0.1,0.4-0.2,1.1-0.4,1.4l-0.4-0.9l0.8-2.4l-0.3-1
	c-1.2-0.4-3-0.5-4.2-0.2l-0.9,1.4l-1.2,0.6l-1.4-0.7c1-1.5,1.4-3.2,2.4-4.8l0.5,0.2c0.6-0.1,1.3,0,1.8-0.2c1-0.3,2.9-1.3,3.3-2.4
	c-0.1-0.3,1.4-3.6,1.5-3.9c0,0,0.5-0.4,0.6-0.5l0.5,0l0.3,0.8l-0.3,0.9c0.4,0.5,1.8,0.6,2.3,0.6l0.3-0.2l0.1-0.2l0.4,0.1
	c0.6-1.4,1.8-1.3,2.6-2.2l0.7-1.1l0.4-0.6c1,0.1,1.4-0.2,1.9-0.3c1.1-0.1,2.3,0.1,3.5-0.1c0.4-0.1,0.9-0.4,1.3-0.5
	c2.1-0.6,4.2-1,6.1-1.9c0.5-0.2,1-0.7,1.5-0.9c0.1,0,0.6,0,0.8,0c1.5-0.2,3.3-0.6,4.5-1.4c0.5-0.3,0.9-1.1,1.4-1.5
	c0.6-0.4,1.5-0.4,2.1-0.8c0.4-0.2,1.9-1.4,2-1.9c1-0.3,2-0.9,2.9-1.4l0.2-1.1l0.5,0.1c1.1-0.6,3.6-1.8,4-3c-0.1-0.5,0.1-1.3,0.4-1.8
	c0.4-0.1,0.9,0,1.3,0.2c1.4,0.1,4.3-3.1,5.4-4c0-0.5-0.4-1.1-0.8-1.4l0.4-0.1c0.1-0.5,1.1-1.2,1.2-1.9l1-0.3
	c1.6,0.7,1.7,2.1,3.6,2.6c3.1-1.2,4-4.7,4.6-7.6c-1.6-2.6-4.5-0.8-5.7-2.1c-0.2-0.2-0.3-0.5-0.4-0.7c-0.2-0.2-0.5-0.3-0.7-0.5
	c-0.5-0.5-0.7-1.6-0.8-2.2l-0.6-0.6l-0.1-0.3l0.2-0.4h0.3l0.1,0.3c0.1,0.1,0.5,0.2,0.6,0.2l0.3,0.5c0.7,0.4,2.5,1.2,3.3,1.2l0.3-0.5
	l0.3,0.1l0.4-0.5l0.4,0.3l0.4,0.7l0,0.5c1.3,1,5.7,3.5,7.2,2.5c0.6,0.3,1.8,0.9,2.5,0.9c1.2,0,2.3-0.6,3.4-1.1
	c1-0.4,2.2-0.7,3.2-1.2c3.7-1.6,7.1-3.8,10.8-5.6c0.7-0.3,1.5-0.5,2.2-0.9c1.7-1,5.5-3.9,7-5.2c1.9-1.7,3.2-6,4.2-8.3
	c0.5-1.1,1.7-3.1,0.9-4.3c-5-2.9-2.4-2.2-2-7.9l0.7-0.5c1-2.9,1.9-3.8,0.4-6.7l0.8,0.3c0.1-0.1,0.6-0.5,0.6-0.6
	c1.1-2.1,2.4-7.6,3.1-9.9c1.1-0.8,2.9-1.1,4.2-1.2c0.8,0.6,2,1,3,1.1l0.6,1.1l-1.3,0c-0.6,0.8-1.2,2.4-1,3.5
	c1.9-0.5,3.7-0.2,5.5,0.5c0.7-0.5,1.6-0.9,2.3-1.4c1.5-1.2,1.5-3.1,2.1-4.7l-0.5-0.1c-0.5-2.1-1.1-2.6-3.1-2.7
	c-0.6-0.4-0.9-0.8-1.7-1c-0.4,0.2-1.4,0.3-1.8,0.2l0-0.3c-0.1,0.1-0.1,0.5,0,0.7l-1.8,0.2l-2.3-6.5l1.5-0.6l0.7-1.7
	c0.4-0.3,0.5-1.3,0.8-1.8c0.1-0.3,0.6-1.1,0.6-1.4c0-1.4-3.7-1.6-4.2-0.7c-0.2,0.7,0,2.1-0.4,2.6c-1,1.4-1.6,1.7-2.8,2.7
	c-0.6,0.5-0.5,1.1-0.9,1.7c-0.6,0.9-1.4,1.3-1.9,2.6l-1.5,0l-0.2,0.5l-2.2-0.5l-0.7-0.9c-0.1-0.5-0.2-1.8,0.1-2.2
	c1-0.3,1.1-1.4,1.6-2c0.4-0.5,1.3-1,1.8-1.4c-0.4-1.3-1-2.6-1.7-3.7l0.1-0.4l-0.4-1l0.5-2.4l-0.8-0.1l0.3-1.9l0.7,0.1l0.2-1.2
	c-0.2-0.2-0.2-0.8-0.2-1.1l0.3-0.2c-0.2-1.4,0.2-2.2,0.2-3.4c0-0.8-0.3-1.7-0.5-2.5c-0.1-0.2,0.1-0.6,0-0.8
	c-0.2-1.2-0.6-4.3-1.5-5.1c-0.8-0.5-2.1-1.3-3.1-1.4l-0.8-0.9c0-0.6-0.3-1.5-0.7-1.9c-0.2-1.5,1.4-3.3,2.3-4.3l-0.1-1.2l0.2-0.3
	l1-0.1c1.6-2.1,2.9-4.4,4.3-6.5c0-0.1,0-0.7,0.1-0.8c0.3-1.2,1.6-2.9,2.6-3.5l0.1-0.5c-0.4-0.5-0.8-1.7-0.6-2.3
	c2.1-2.3,1-5.5-0.6-7.7c-0.8-1.1-1.9-2.1-2.7-3.2c-0.5-0.8-0.3-2.1-1.3-2.7c-1.1-0.7-3,0.3-4.2-0.1l-1.6-0.9l-0.8-0.4
	c0-1.4-2.1-2.4-2.6-3.6c0.3-0.9-1.2-3.4-1.7-4c-0.3-0.4-1.9-1.6-2.5-1.7c-0.9-0.1-1.5,0.8-2.3,1c-0.1,0-1.8,0-2.1,0l0.1-0.3
	c0.3-0.2,1-0.4,1.3-0.2l0.1-0.3c-0.3-1.4-1.4-2-1.9-3.2l-0.7-0.3l-0.1-0.7l0.4-0.1l0.6,0.3l0.3,0.7l0.7,0.2c0.9-0.3,3.2-1.9,3.8-2.6
	c0.3-0.3,0.4-1.2,0.2-1.6c-0.8-1.4-1.8-1.4-2.5-2.5l-0.4,0l-0.2-0.8l0.5-0.4l0.1-1.9c0.4-0.7,2-2,2.6-2.3c0.7-0.4,1.8-0.5,2.5-0.8
	c0.1-0.8,0.9-1.6,0.9-2.2l0.5-0.1c0.9,1,3.7,0.9,4.8,0.3c1.1-0.7,3.5-3.9,2.6-5.3l-2-1.4l0.2-1.7l0.7-0.1l0.6-0.5
	c0-0.6-0.4-1.7-1-2.1l0.7-0.5l0.5,0.1l0.2,0.3l1.5,0.2l0.3-0.2l1.9,0.5c0.3-0.1,0.9-0.5,1.1-0.8c0.8-1.2,2.9-5.5,2.8-6.9
	c0-0.4-0.1-0.8-0.2-1.1c-0.6-0.3-1.1-1.4-1.2-2l-0.9-0.7c0.2-0.6,0-2-0.6-2.3l0-0.4l0.4-0.5l0-0.5c0.2-0.7,0.9-0.8,1.1-1.3l-0.2-1
	l0.6-1l-0.1-0.8c0.4-0.3,0.8-0.9,1-1.4c-0.1-0.4-0.2-1.6,0-2c1.5,0.2,5.2-5.3,6-6.4l0-0.8l-0.4-0.8l0.5-0.8l3.8-0.4l1.1,0.8l0.1,1.5
	l0.3,0.4l1.9,0.1l0.9-0.8l0.2-0.7l-0.2-0.6L242,333l0.1-0.1l48.4-3.4l53.6,4.1l0.1,0c-0.6,2.4-1.2,5.2-1.7,7.9c-1,6,1,19,3,27
	s2,31,2,31l9.6,16l0,0l-14.6,6l-10,9l-1,10c0,0-6,34-8,39s-3,9-7,14s-3,9-3,13s0,5-4,10c-4,5-1,11,1,15c2,3.9,8.1,11,8.4,11.4
	c0,0.2,0,0.5,0,0.7c-0.2,0.2-0.8,0.8-1.2,0.8l-0.4-0.1l0,0.3l-0.6,0.6c-1.1-0.1-2.6-0.6-3.5-1.4c-0.4,0.3-1,1-1.1,1.5l0.1,1.1
	l-1.3,0.8c-1.5-0.2-2.9,0.2-4.3-0.4c-0.3-0.6-1-1.3-1.6-1.5c0.3,1.6,1,2.2,2,3.4c1.6-0.4,5.5-0.2,6.5-1.3h0.6
	c0.9,0.7,1.2,1.9,2.1,2.4c0,0.4,0.3,1.3,0.5,1.6l0.3,0.4c0.2,1.2,0.2,2.6,0.5,3.7c0.2,0.8,2.5,4.6,3,5.4l0.9,0.4
	c0.5,1.3,1.8,3.2,3,3.9c-0.2,0.7,0.5,2.2,0.8,2.9c1.5,0.4,2.1,2.3,3.6,2.4c0.5-0.4,1.8-0.3,2.4,0l0.4,0.5l-0.4,0.8l-0.4-0.1
	c-1,0.2-2.2,2.1-2.4,2.9c-0.2,0.7,0.1,1.9,0.6,2.5l-0.3,0.7l0.3,0.7l0.5,0.3l0.7-0.1l0.2,0.5l-0.3,0.3l-0.1,0.8l0.6,0.2l0.4-0.3
	l-0.3,0.6c0.3,0.8,0.8,1.4,1.1,2.1c-0.4-0.7-1.9-1.4-2.6-1.7l-0.5,0.3l-0.5,0v0.5c-0.3-0.2-1-0.1-1.3,0c-0.9,0.9-2,1.9-2.3,3.2
	l0.3,0.6l0.5,0.3l0,0.4l0.4,0.4v0.6l-0.7,0.1l-0.8,1.5l0,0.5l-0.7-0.2l-0.7,0.6c-0.2,1.2,0.6,2.1,1.5,2.7l0.1,1l-0.6,0.3
	c-0.4-0.1-1.1,0-1.5,0.2l-0.7-0.2l-0.6,0.2c-0.6-0.9-1.3-1.8-1.4-2.9c0.6-0.5,1.4-2.5,1.5-3.3c-0.3-0.5-0.7-0.9-1.1-1.4
	c1.1-3-2.4-7.5-3.7-10.2l0.9-2.3l-0.4-2.2c-0.6-0.7-2.1-1.4-2.9-1.7c-1-1-1.1-2.8-2.3-4.2l0.1-0.9c-0.7-0.3-1.3-1.5-1.4-2.2
	c0.9-1.9-1.2-4.6-2.6-5.6c-0.3-0.5-0.1-1.6,0.1-2.1c-0.4-0.7-0.9-1.3-1.4-1.9l0.1-0.7l-0.2-0.6c-0.6-0.4-3.4-1.4-4.1-1.4
	c-2.2,0.9-4.2,1.6-5.4,3.9c-0.6-0.2-0.9,0-1.4-0.1l-0.2-0.6l0.2-0.6c-0.4-0.5-0.4-1.4,0-1.8c-0.4-0.3-0.7-1-0.8-1.5
	c-1.8-1.1-8.2-6.1-9.7-5.9c0.4,0.9,0.9,1.3,1.3,2c0.6,1.1,1.2,4.6,0.6,5.7l0.4,0.5c1.3,1.6,0.7,1.5,1.2,3.3c0.3,1.1,1.5,2.8,2.2,3.7
	l0.9,0.3c0.6-0.2,1.3-0.5,1.9-0.8c2.4-1.3,3-3.2,5.9-1.4c0.2,0.1,1.5,1,1.6,1.1c1.1,1.2,0.5,3.1,1.5,4.4c-0.5,1.8,0.6,2.1,1,3.3
	c0.5,1.4,0.8,3.1,1.2,4.5c0.1,0.2,0.1,0.5,0.1,0.8c-0.3-0.3-0.8-0.5-1.1-0.8c-0.6-0.1-1.6,0.2-2,0.6c0,0.5-0.7,1.3-1,1.6l0,0.6
	l1.2,1.5c0.4,1.7,0,3.3-0.6,4.9l0.5,0.7l0,0.4l-0.7,0.2l-0.6-0.5c-0.1-0.8-0.9-1.3-1.3-1.9c-0.5-0.7-0.6-1.6-1.2-2.3l-0.7-0.3
	c-0.3-0.7-1.2-0.8-1.6-1.5c-1.2,0-1.4-1.3-2.3-1.5l-0.4-0.6c-0.2,0-0.7-0.3-0.8-0.5c0-0.3-0.3-0.9-0.5-1.2c-0.4-0.3-1.6-0.5-2.1-0.4
	c-0.4,0.1-1.8,1-1.9,1.5c0.3,0.5-0.8,3.1-1,3.7l-0.5,0c-0.3-0.2-0.8-1-0.9-1.3l-0.6-0.1l-0.4-0.5l-0.6-0.1l-1-1.4l-0.4,0.1l-0.4-0.4
	l0.2-0.5c-0.3-0.8-1.2-2-2-2.4l0.1-0.9l-0.4-0.3c0-1,1.1-3.3,1.4-4.5l0.4-0.3l0-0.6l-1.3-1.2l-0.4,0.1c-0.4-0.1-1.5-1.8-1.8-2.1
	c-0.5-0.1-1.1-0.2-1.7-0.2c-0.2,0.2-0.8,0.5-1.1,0.5l0,0.4c-0.1,0.3-0.4,0.7-0.6,0.9v0.4l-0.4,0.2l0,0.6c-0.5,0.5-1.9,0.4-2.5,0.1
	c-0.1-0.3-1.7-3.3-1.9-3.5l-0.4,0.2l-0.7-0.8l0.2-0.3l0.5,0.1l0.5-0.5c-0.4-0.5-1.2-1.4-1.9-1.5c-0.1,0.1-0.4,0.3-0.6,0.3
	c-0.2-0.1-0.3-0.4-0.3-0.6c-0.9-0.3-2.9-0.8-3-2c-0.7-0.4-1.4-0.9-2.2-1.1c0-0.2-0.2-0.6-0.4-0.6l-0.1-0.4l-0.3,0l-0.2-0.2l0.2-0.4
	c-0.3-0.3-1.4-0.6-1.8-0.5l-0.3,0.2c0,0.3-0.4,0.7-0.6,0.9l-1-1.4l0.4-0.5l-0.5-0.1c0-0.7-1.2-3.8-1.6-4.6l0.2-1.1l-1.5,0
	c-0.9,0.8-1.4,2-1.4,3.1l1,2.4l-0.4,1.8l-0.2,0.2l0.2,0.6l-0.1,0.3c0.5,0.4,0.4,1.5,0.2,2c0.4,1,1.4,2.1,2.2,2.8
	c0.1,0.1,1.1,0.8,1.2,0.8c0.6,0.9,1.1,2.1,1.7,3.1l-0.2,0.5l0.1,0.2c0,0.4-0.1,0.9-0.3,1.2l-0.2,0l0,0.5l-0.3,0.1l-0.5,1.3
	c-0.8,0.2-3.9,2.3-4.4,2.8c0,0.3,0.1,0.5,0.1,0.9L254,569l0.2,0.2c0,0.4,0.3,0.7,0.2,1.1l-0.3,0.2c-1.3,0.1-1.2-0.8-2.9,0.1
	l-0.3,0.6l-1.9,0.4c-1,1.3-1.9,3.3-2.6,4.8l0.1,0.3c-2.1,0.7-1.5,1.5-1.9,3c-0.2,0.7-0.5,1.3-0.8,2c-3.6,0.4-2.5,3.2-4.8,5l-0.4-0.3
	c-0.4-0.6-0.2-1.9,0-2.5c-1.2-0.9-2.1-3.1-2-4.6c0.3-0.5,0.8-1.1,1-1.6c0-0.1,0.1-0.8,0.2-1c0.3-1.1,1-2.1,1.3-3.1
	c0.1-0.4,0.2-0.9,0.3-1.4c0.1-0.4,0.4-0.8,0.5-1.2c0.1-0.7-0.1-2.1-0.3-2.8c-0.9-0.6-2.5-0.8-3.6-0.8c-1,0.4-1.3,1.5-2,2.2
	c-1.2-0.2-2-2-2.2-3c-0.7-0.4-1.6-0.8-2.5-0.8c-1.2,0.4-2.1,1.3-2.8,2.4l0,1.4l0.6,0.2l0.3,0.9l-0.5,0.2l0,0.7l0.8,0.6
	c0.5,1.1-0.2,2.2-0.9,2.9l0,1.6l1.3,1.2l-0.7,2.8l-1.1,0.1c-0.6,0.8-1.2,1.6-1.7,2.5l1,2c0,0.5,0,1.7-0.5,2.1c0.2,0.9,1.6,1.9,2,3.2
	l-0.8,0.8c0,0.4,0,1,0.1,1.4l0.7,0.8c-0.6,1.4-0.6,3.1-1,4.5l0.6,0.9c-0.8,0.3-1.1,1.2-1.1,1.9l-0.4,0.2c-0.3,0.5-0.5,1.1-0.6,1.7
	c0,0.5,0.7,1.1,1,1.4c-0.6-0.4-2.2-0.4-2.8-0.3l-0.3-0.4l0.2-0.9l-0.3-0.7c0.2-0.5,0.5-1,0.5-1.6c0-0.2-0.3-0.7-0.5-0.8l-0.1-0.6
	l-0.5-0.7h-1.2c-0.4,0.4-0.8,1.2-1,1.7c-0.7-0.5-1.5-1.4-1.8-2.2c-0.5-0.4-1.5-0.7-2.1-0.4c-0.8,0.7-0.9,1.7-1,2.7l1.2,0.2
	c0.4,0.5,0.8,1,1,1.6c-0.9,0.6-0.7,1.8-1.5,2.3l-0.5-0.2l-0.4,0.2l-0.6-0.4l-0.5,0.2l-0.6-0.1l-0.2,0.8l0.4,0.5l-0.4,0.1l-0.5-0.3
	c-0.2,0.1-0.5,0-0.6-0.1l0,0.4l-0.6,0.5l0.2,0.7l-0.3,0.6l0.5,0.4l-0.7,0.2c-0.5-0.5-1.8-0.4-2.5-0.4l-0.2,0.6l-0.3,0.2l0.2,0.4
	l-0.3,0.1l-0.8-0.7l-0.1-0.4l0.2-0.6l0.9-0.6c2.2-3.3,0.1-4.7,0.5-6.8c1.2-1.4,1-2.1,1.6-3.2c0.4-0.8,1.1-1.6,1.7-2.3
	c-0.1-0.5,0.1-1.1,0-1.5c-0.2-0.9-0.7-1.8-1-2.7c0.3-0.3,0.7-0.6,0.9-0.9c0.2-0.3,0.2-0.7,0.4-1c0.4-0.7,1-1.4,1.4-2.1l-0.5-0.5
	c0.1-0.2,0.3-0.8,0.2-1.1l0.9-1.2l-0.6-1.5c1.1-0.6,1.9-1.8,2-3.1c-0.5-2.6-4.1-3.6-6.3-3.9l-2,1.6c-0.2,0-0.8,0.1-1-0.1l0-0.2
	c-0.5,0.2-1.1,0.2-1.7,0l-0.4-1.1l0.3-0.8l-0.4-0.7l0.1-0.9c-0.3-0.5-0.5-1.2-0.9-1.6l0.3-0.2l-1.1-0.9c0.3-0.3,0.5-1,0.4-1.4
	c0.8-1.3,0.9-2.4,0-3.7c-2.5-0.7-2.4,0.5-3.5,0.4l-0.4,0.9l-0.3,0.1c0.1,0.7,0,1.6,0,2.3l-0.5,0.2c0,0.5-0.2,1.4-0.6,1.8l0.4,1.3
	l-0.7,1.3c0.4,0.4,1.1,1.4,1.1,1.9l-0.8,1.9l0.9,1.3c0.1,0.4-0.1,1-0.3,1.3c0.1,0.3,0.3,0.9,0.6,1c-0.2,1.4-0.9,3-1.3,4.3l1,1.2
	l-0.1,1.1l-1.7,0.9c0.2,0.7-0.1,1.4-0.3,2.1l0.4,1.2c-0.4,0.6-0.8,0.5-1.2,0.8c-0.5,0.3-1,1.5-1.2,2c0,0-0.2,0.2-0.3,0.2
	c0-0.3-0.3-0.8-0.6-1l-0.5-0.1l-0.5,0.4l0.2-0.9c0.6-0.4,1.5-0.9,1.8-1.6c0.2-0.5,0.2-1.1,0.5-1.5l0.2-0.1c0-0.5,0.3-0.9,0.4-1.4
	c0.5-2-0.4-2.7-2.1-3.8c-0.4,0.1-0.9,0.6-1,1c-0.1-0.8-0.3-1.8-0.2-2.7c0-0.2,0.2-0.5,0.2-0.7c0-0.2-0.1-0.6-0.1-0.9l0.2-0.3l0-0.9
	l-0.2-0.3l-0.8,0.4c0-0.4-0.2-1.2-0.6-1.5l0.3-0.8l-0.1-0.5c-1.1-0.6-3.3-0.6-4.2,0.4c-0.4,1,0,2.3,0.3,3.2
	c-0.4,0.6-0.2,2.7-0.1,3.3l-0.3,0.5l-0.4,0.2l-0.3-0.4c0.1-0.3,0-0.7,0-1c-0.8-1.4-3.3-0.4-4.1,0.6c-0.1,0.3-0.2,0.7-0.2,1.1
	l-0.6,0.5l0,0.4l0.3,0.4l-0.4,0.7c0.2,0.3,0.5,1.1,0.2,1.4l-0.3,0.2l-0.4-0.4l0-0.2l-0.3-0.3l0.2-0.5l-0.4,0.1
	c-0.1-0.3-0.2-1-0.3-1.3l-0.6-0.6l0.2-1.8l-1.6-0.8c-0.2-0.3-0.5-0.7-0.7-1.1c-0.6-0.2-1.9-0.6-2.5-0.1l0.1-0.5
	c0.5-0.3,0.9-1.2,1-1.8l-0.3-0.8c0.4-0.5,0.1-0.8,0.2-1.2c0.1-0.6,0.6-1,0.3-1.7c-0.8-0.5-2.7-1.2-3.8-1l-0.2,0.4l-0.4-0.4l-1,0.1
	c-0.1,0.7-0.5,1.2-0.5,1.9l-0.4,0.5l-0.5-0.2c0.2-0.8-0.6-1.5-1.2-1.9l-1,0l-0.9-0.8l-1.4-0.1c0.4,0,1-0.3,1.2-0.6l-0.5-0.4
	c-2.1-0.2-4.3,0.1-6.4,0c-0.2,0-0.6-0.2-0.8-0.2c-0.6,0-1.2,0.2-1.8,0.3c-0.6,1.6-0.1,2-0.1,3.2c-0.1,1.8-1,2.4-1.4,3.8l0.1,0.5
	l0.4,0l0.5,0.6l0.1,1.4l-0.6-0.7l-0.4,0.7L155.2,581.5L155.2,581.5z"/>
<path class="st3" d="M318.9,542.9c0,0-6.4-7.4-8.4-11.4s-5-10-1-15c4-5,4-6,4-10s-1-8,3-13s5-9,7-14s8-39,8-39l1-10l10-9l22-9h36
	l53,31l28.5,25.7 M357.1,415.5l-9.6-16c0,0,0-23-2-31s-4-21-3-27s3-13,3-13l-1-26c0,0,0-4,4-7s20-21,20-21l20-39l8-11c0,0,0-11,6-17
	s12-8,16-8s8-2,12,0s15,1,15,1s17-6,33-3s22,0,26-1s8-2,12-2h18c0,0,7-4,11-3s13,1,13,1 M242.1,332.9l48.4-3.4l53.6,4.1 M291,178
	c0,0,11.5,7.5,16.5,7.5s12,2,20,5s8,3,12,7s6,8,11,10s9,6,13,9s23.6,21.5,23.6,21.5 M406.6,204.2l-2-42.7c0,0,0-7,2-11s4-10,4-10
	v-18c0,0-4-2-4-7s2-12-4-14s-5-2-9-6s-7.6-11.3-7.6-11.3"/>
<path class="st4" d="M254.1,568.6c-0.1-0.4-0.1-0.6-0.1-0.9c0.5-0.6,3.6-2.7,4.4-2.8l0.5-1.3l0.3-0.1l0-0.5l0.2,0
	c0.2-0.3,0.3-0.8,0.3-1.2l-0.1-0.2l0.2-0.5c-0.5-1-1-2.2-1.7-3.1c-0.1-0.1-1-0.7-1.2-0.8c-0.8-0.7-1.8-1.8-2.2-2.7
	c0.2-0.5,0.2-1.6-0.2-2l0.1-0.3l-0.2-0.6l0.2-0.2l0.4-1.8l-1-2.4c0-1.2,0.5-2.4,1.4-3.1l1.5,0l-0.2,1.1c0.3,0.8,1.6,3.9,1.6,4.6
	l0.5,0.1l-0.4,0.5l1,1.4c0.2-0.2,0.6-0.6,0.6-0.9l0.3-0.2c0.4-0.1,1.5,0.2,1.8,0.5l-0.2,0.4l0.2,0.2l0.3,0l0.1,0.4
	c0.2,0.1,0.3,0.5,0.4,0.6c0.7,0.2,1.5,0.7,2.2,1.1c0,1.2,2.1,1.7,3,2c0,0.2,0.2,0.5,0.3,0.6c0.2,0,0.5-0.1,0.6-0.3
	c0.7,0.1,1.5,1,1.9,1.5L270,558l-0.5-0.1l-0.2,0.3l0.7,0.8l0.4-0.2c0.2,0.2,1.8,3.3,1.9,3.5c0.6,0.3,2,0.5,2.5-0.1l0-0.6l0.3-0.2
	V561c0.2-0.3,0.5-0.6,0.6-0.9l0-0.5c0.3,0,0.8-0.4,1.1-0.5c0.6,0,1.1,0,1.7,0.2c0.3,0.4,1.4,2,1.8,2.1l0.4-0.1l1.3,1.2l0,0.6
	l-0.4,0.3c-0.3,1.2-1.4,3.5-1.4,4.5l0.4,0.3l-0.1,0.9c0.8,0.4,1.7,1.6,2,2.4l-0.2,0.5l0.4,0.4l0.4-0.1l0.9,1.4l0.6,0.1l0.4,0.5
	l0.6,0.1c0.2,0.3,0.6,1.1,0.9,1.3l0.5,0c0.2-0.6,1.3-3.2,1-3.7c0.1-0.5,1.5-1.4,1.9-1.5c0.5-0.1,1.6,0.1,2.1,0.4
	c0.2,0.3,0.5,0.8,0.5,1.2c0.2,0.1,0.6,0.4,0.8,0.5l0.3,0.6c0.9,0.2,1.1,1.5,2.3,1.5c0.4,0.8,1.3,0.8,1.6,1.5l0.7,0.3
	c0.6,0.7,0.8,1.6,1.2,2.3c0.4,0.6,1.2,1.1,1.3,1.9l0.6,0.5l0.7-0.2l0-0.4l-0.5-0.7c0.6-1.6,1-3.2,0.6-4.9l-1.2-1.5l0-0.6
	c0.3-0.3,1-1.1,1-1.6c0.5-0.4,1.4-0.7,2-0.6c0.4,0.2,0.8,0.5,1.1,0.8c0-0.2,0-0.6-0.1-0.8c-0.4-1.5-0.7-3.1-1.2-4.5
	c-0.4-1.1-1.5-1.5-1-3.3c-1-1.3-0.4-3.2-1.5-4.4c-0.1-0.1-1.4-0.9-1.6-1c-2.9-1.9-3.4,0-5.9,1.4c-0.6,0.3-1.3,0.5-1.9,0.8L291,559
	c-0.7-0.8-1.9-2.6-2.2-3.7c-0.5-1.8,0-1.7-1.2-3.3l-0.4-0.5c0.6-1.1,0-4.6-0.6-5.7c-0.3-0.7-0.9-1-1.3-2c1.4-0.2,7.9,4.8,9.7,5.9
	c0.1,0.5,0.4,1.2,0.8,1.5c-0.5,0.4-0.4,1.3,0,1.8l-0.2,0.6l0.2,0.6c0.5,0.1,0.9-0.1,1.4,0.1c1.2-2.2,3.2-3,5.4-3.9
	c0.7,0.1,3.5,1.1,4.1,1.5l0.2,0.6l-0.1,0.7c0.5,0.6,1,1.2,1.4,1.9c-0.2,0.5-0.4,1.6-0.1,2.1c1.4,1.1,3.5,3.7,2.6,5.6
	c0.1,0.7,0.7,1.9,1.4,2.2l-0.1,0.9c1.2,1.3,1.3,3.2,2.3,4.2c0.9,0.2,2.3,0.9,2.9,1.7l0.4,2.2l-0.9,2.3c1.3,2.7,4.8,7.2,3.7,10.2
	c0.4,0.4,0.8,0.9,1.1,1.4c-0.1,0.8-1,2.8-1.5,3.3c0.1,1.1,0.8,2,1.4,2.9l0.6-0.2l0.7,0.2c0.4-0.2,1.1-0.3,1.5-0.2l0.6-0.3l-0.1-1
	c-0.9-0.6-1.7-1.5-1.5-2.7l0.7-0.6l0.7,0.2l0-0.5l0.8-1.5l0.7-0.1v-0.6l-0.4-0.4l0-0.4l-0.5-0.3l-0.3-0.6c0.3-1.3,1.4-2.3,2.3-3.2
	c0.3-0.1,1-0.2,1.3,0v-0.5l0.5,0l0.5-0.3c0.7,0.2,2.2,1,2.6,1.7c-0.2-0.8-0.8-1.4-1.1-2.1l0.3-0.6l-0.4,0.3l-0.6-0.1l0.1-0.8
	l0.3-0.3l-0.2-0.5l-0.7,0.1l-0.5-0.3l-0.3-0.7l0.3-0.7c-0.5-0.5-0.8-1.8-0.6-2.5c0.3-0.9,1.4-2.7,2.4-2.9l0.4,0.1l0.4-0.9l-0.4-0.5
	c-0.6-0.3-1.8-0.4-2.4,0c-1.4-0.1-2-2-3.6-2.4c-0.4-0.6-1-2.1-0.8-2.9c-1.2-0.7-2.6-2.6-3-3.9l-0.9-0.4c-0.5-0.8-2.8-4.6-3-5.4
	c-0.3-1.1-0.3-2.6-0.5-3.7l-0.3-0.4c-0.2-0.3-0.5-1.2-0.5-1.6c-0.9-0.5-1.3-1.7-2.1-2.4h-0.6c-0.9,1.1-4.8,0.8-6.5,1.3
	c-1-1.2-1.6-1.8-1.9-3.4c0.6,0.2,1.3,0.9,1.6,1.5c1.4,0.6,2.8,0.2,4.3,0.4l1.3-0.8l-0.1-1c0.1-0.5,0.8-1.2,1.1-1.5
	c0.8,0.9,2.3,1.3,3.5,1.4l0.6-0.6l0-0.3l0.3,0.1c0.4,0,1-0.6,1.2-0.8c0-1.9,0.2-2.3,1.3-3.9l0.6-0.3c0.5,1,0.4,2.1,0.2,3.1l0.4,0.7
	l0.8,0.3c0.2,0.7,0.4,1.4,0.5,2.1l-0.6,1.1l0,0.8l1.5,1.4l-0.1,2.7l-0.3,0.3c-0.7,0-2.4-1.1-3.2-1.4c-0.2,0.2-0.3,0.6-0.2,0.9
	c1.2,0.2,2.3,1.1,3.2,1.8l0.9,0.1l0.3,0.5l0.4,0.1c0.2,0.2,0.4,0.6,0.5,0.9l0.7,0.1c0.2,0.6,1.1,0.8,1.5,1.2
	c0.7,0.7,0.6,1.6,1.6,2.1c1.3,0.2,3.5-0.5,4.3,0.8c1.3-0.4,2.6-0.5,3.9-0.8l0.3,0.3l1-0.1c1.8,2.1,2.5,3.2,3.2,5.9l1,0.7l0.2-0.4
	c1,0.5,1.8-0.2,2.7,0.1c0.4-0.5,1-1,1-1.7l-0.3-0.2c-0.1-0.4,1.5-2.4,2-2.6l0.5,0.2l0.5-0.6l-0.3-0.8l-0.4,0l-0.8-0.7l-0.3-1.4
	l-1,0.2l-0.7-0.3l-0.5,0.4l-0.6,0.1c-0.5-0.7-0.8-2.3-0.8-3.1c-0.6-0.2-1.2-0.7-1.6-1.2l-1,0.1l-0.4-0.2l-1.8,0.4
	c-0.2-0.1-0.9-0.4-1.2-0.4l-0.3-0.5c-0.9-0.2-1.9-0.3-2.8-0.6l-0.2,0.4l0.1,0.5l1-0.2l0.5,0.3l0.6-0.1c0.2,0.4,0.4,1,0.4,1.4
	c-0.4,0.2-0.8,0.4-1.1,0.6c-0.6-0.1-1-0.5-1.7-0.5l-3.7-0.3c-0.3,0-0.7-0.2-0.9-0.3c-1.2-0.4-0.8-0.4-1.4-1.4
	c-0.1-0.2-0.4-0.5-0.5-0.7c-0.1-0.1-0.1-0.8-0.2-0.9c-0.6-1-1.4-2.6-2.2-3.4c-0.2-0.9,0-1.7,0.1-2.6l0.3-0.1l0.3-1.7l0.3-0.3
	l0.4,0.1l0.5-1l0.3-0.2l0.3,0.1l0.5-0.3c0.3,0.2,0.7,0.5,1,0.6c0.3,0.1,0.7,0,1,0.1c1.5,0.3,2.6,1.1,3.5,2.3c0.4-0.3,2.8,0.3,3,0.7
	l0.5-0.2c0.3,0.2,1,0.3,1.3,0.2l0.2-0.2l0.4,0l0.5-0.4l0.4,0.1c0.5-0.3,1.1-0.7,1.6-0.9c0.3,0.1,0.7,0.3,0.9,0.5
	c0.4,0,0.8,0,1.2,0.1l0.1-0.4l0.2-0.1c0.4,0,1.1,0.8,1.6,1l0.7-0.1c0.3,0.7,1.1,1.2,1.6,1.8l0.1,0.7l0.3,0.4
	c0.6,0.3,1.7,0.2,2.4,0.2c0.5,0.8,2.5,0.8,3.3,0.5c0.4-0.2,1.7-1.5,2-1.9l1.4-0.2l0.6-1.1l-0.3-1.7c0.4-0.8,1.3-1.9,2.4-1.9
	c0.3,0.3,0.9,0.6,1.3,0.5c0.5,0.8,1.3,1.6,2,2.3l1.5,0.3c0.2,0.5,1.2,0.8,1.7,0.9c0.7-0.4,2.6-1.1,3.4-1.1c1.3,0,4.2,1.4,4.9,2.5
	c0.9,1.4,0.7,3.1,1.4,4.6c0.1,0.1,0.1,0.2,0.2,0.3c0.3,0.4,0.7,0.7,1.1,1.1c0.4,0.4,0.7,0.9,1.1,1.4v0.7l0.5-0.3
	c0.6,0.3,1.4,0.8,1.8,1.4l0.7,0.1c-0.5-0.7-0.8-1.7-1-2.5c0-0.2-0.1-1.1-0.2-1.2c-0.5-1.2-1.8-2.4-1.9-3.8c0.2-0.4,0.7-1.5,0.6-2
	l-0.3-0.2l-0.5,0.2c-1.5-1.3-1.4-4.3-0.8-6l-0.5-1.7c1.2-2.3,5-2.4,7.1-1.9l1.2,2.1l0.3-0.8l-1-2c0.7-1.1,1.8-4.5,1.4-5.7l0.8-0.9
	c0.5-0.2,2.9-1.1,3.4-0.9l-0.1,0.7l1.1,0.2l0-0.2c0.5,0.3,0.7,1.3,0.6,1.9l-0.2,0.1c0.1,1,1,1.3,1.4,2.1c0.4,0.7,0.3,1.5,0.8,2.2
	l0,0.8l-0.4,0.2l0.3,0.1c0.7,0.7,1.1,3.2,1.3,4.2c0.3,1.9-0.1,1.2-0.4,2.9c-0.2,1,0.6,3.2,1.1,4l0.5,0.3c0.2,0.9,0.8,1.6,1.2,2.4
	l0.4-0.2l0.1-0.3l-0.5,0l-0.1-0.4l0.3-0.6l0.4-0.2c0.2,0.2,0.6,0.3,0.9,0.3c-0.3-0.3-0.6-0.6-0.9-0.9l-0.6-0.1
	c-1.3-0.9-0.9-1.6-1.6-2.5c0.2-0.5,0-1.1,0.3-1.6c0.7-0.5,1.4-1.2,2-1.9c-0.3-1.4,1.3-3.2,2.4-4c0.6-0.2,1.5-0.3,2.1-0.3
	c0.3,0.8,0.8,1.7,1.4,2.4l0.5,0.2c0.4-0.2,0.8-0.5,1-0.9c0.1-0.5,0.3-1.2,0.3-1.7c0-0.8-1-1.2-1.3-1.8c0-0.1-0.4-1.4-0.4-1.5
	c-0.1-0.5-0.9-0.6-1.2-0.5l-0.7-0.3l-0.5,0.2l-0.3-0.1c-0.1-0.1-0.4-0.8-0.4-0.9c0.3-1.3,0.5-2.4,1-3.7c0.8-2,1.4-2.1,3.4-2.8
	c0.9-0.3,3.1-0.2,3.9,0.4c1.3,1.3-0.2,2.9,1.3,4.7c0.2,0.3,0.7,0.6,1.1,0.7l0.2,0.7c0.3,0.1,0.7,0.3,1,0.3c0.2,0.8,0.8,1.7,1.4,2.3
	l-0.2,0.9l0.4,0.7h0.3l0-0.9c0.4-0.2,1.3-0.8,1.5-1.3l0.4,0.4l0.6-0.2c-0.3-1.7,0-2.7,1.7-3.4h1l-0.1,0.4l0.2,0.4l0.6-0.6l0.4,0.1
	l0.3,0.8l0.3-0.5l0.5-0.2l0.6,0.1l0.3,0.4v0.3c0.4,0.2,0.9,0.4,1.2,0.7l0.3-0.2l-0.2-0.4c-0.1-0.4,0.5-1.3,0.7-1.6l-0.2-0.6
	c0.3-0.4,0.8-1.2,1.3-1.4l0.6,0.2l0.3-0.3l-0.1-0.5c-0.3-1.3-1-2-1.6-3.1c-0.5-0.9,0-1.7-0.3-2.5l-0.2-0.6l-3.4-3.3
	c0.6-1.4,2.3-1.7,3.7-1.3c0.5,0.2,0.6,0.5,1.4,0.4c0.8-0.1,1.1-0.4,2-0.1l0.4,0.5c-0.1,2.6,0.7,2.2,2,3.5c0.3,0.4,1.1,1.7,1.5,2.3
	l0.4-0.1l-0.3-0.4l0.1-0.2l0.4,0.1l0-0.9l-0.3-0.5c-0.1-0.6,0.4-1.3,0.5-1.9l0.5-0.5c0.7-0.3,1.5-0.3,2.2-0.3
	c0.2,0.4,0.8,0.8,1.2,0.9c0.5,0,1.1,0,1.6-0.3l0.4,0.1l0.2,0.4l1.2,0.2l0.3-0.4l-0.2-0.6l0.4-0.9l0.9-0.5l0.6,0.2l0.2,0.4l0.4,0.2
	c0,0.2,0,0.5-0.1,0.7l0.4,0.3l0.1-0.6l0.6-0.3c0.8-0.1,1.5,0.9,1.5,1.6l0.5,0.3l0-0.7l0.7,0.3c0.2-0.6-0.5-1.7-0.6-2.4l-0.6-0.5
	c0-0.3-0.2-0.8-0.4-0.9l0-0.6c-0.3-0.4-1.1-1-1.6-1c-0.6-0.5,0-1.6-1.1-2.9c-0.7-0.3-1.1-0.8-1.8-1c-0.4-2.1,1.7-3.6,3.5-4
	c0.9,0.6,3,2.2,3.2,3.2l1.1-0.3l0.9-1l0.4,0.1l0.4,0.5c0.5-0.7,1.1-1.1,1.5-1.7l0.2,0.5l0.6,0.4c-0.2-0.4-0.4-0.8-0.5-1.2l0.3-0.3
	l0.4,0c0.4,0.6,1.2,0.7,1.8,1.4l0.8,0.1c-0.1-0.9-1.5-2.5-1.1-3.2l0.5,0l0.3-0.5l0.6,0.7l0.4-0.4l-0.1-0.6c0.2-0.3,0.6-0.6,1-0.6
	c0.3,0.3,0.7,1,0.7,1.5c-0.2,0.2-0.2,0.8-0.2,1.1l0.6-0.5c0.4,0.7,1,1.3,1.5,1.9l0.1-0.7c-0.3-0.3-0.6-0.6-0.8-0.9
	c0-0.3,0.2-0.7,0.3-0.9c0.5-0.3,1.8-1,2.4-0.9c0-0.7,0-1.6,0.5-2.1h0.5c0.3-1.5-1.3-2.7-1.5-4.2c-0.1-0.7,0.1-1.3-0.1-2l-0.7,0
	l-0.8,0.7c-1.7,0.4-2.2-0.5-3.2-0.7c-0.6-0.1-1.3,0-1.8-0.1c-1-0.2-2.6-1.2-3.7-0.6c-0.7-0.2-1.2-0.3-1.7-1c-0.2-0.5,0-1.4,0.3-1.8
	c0.4-0.1,0.8-0.6,0.9-1l0.4-0.1c0.3,0.2,0.9,0.8,1.3,0.8c1.3-0.4,2.4-0.4,3.6,0.2l1-0.3l0.7-1.3c-0.2-1.4-1.1-2.5-1.7-3.7l0.1-0.9
	c0.3-0.5,1.4-0.8,2-0.8c2.5,0.8,3,2.9,4.7,3.8c0.2,0.1,0.6,0.1,0.8,0.2c0.6,0.3,1.4,0.7,1.9,1.1c0.2,0.2,0.5,0.7,0.7,0.9
	c0.8,0.6,1.9,1.1,2.7,1.7l0.5-0.8c0-0.9-1.2-1.5-1.8-2.1c-0.5-0.6-1-1.5-1.4-2.1l0.2-0.6c0.5-0.4,1.2-0.8,1.8-1
	c0.5,0.6,1.7,1.3,2.4,1.6l-0.3-0.9c0.8-1,2.4-1.7,3.6-2c0.5,0.4,1.4,1,2.1,1.1c0.1,0.6,0.2,1.1,0.3,1.6c1.1,0,2.3,0.2,3.3,0.5
	c-0.3-0.4-1.5-0.8-1.9-0.9c-0.4-1.5-0.3-4.1,0.4-5.5c0.9-1.7,3-3.3,5-3.2c0.4-0.6,1.2-0.9,1.9-0.9l1.2,1l0.4,0l0.5,0.5l0.6-0.2
	c-0.4-0.7-0.9-1.5-1.6-2c-1-0.1-1.5-1-2.2-1.7l0-0.3c-0.3-0.1-0.9-0.4-1.1-0.7l-0.3,0c0-0.2-0.4-0.4-0.5-0.5c0-0.5,0.1-2.2,0.6-2.6
	l-0.3-0.2l0.1-0.3c-0.4-0.5-0.3-1.1-0.6-1.6c0.3-0.8,1.7-2.6,2.6-2.8l0.4,0.1l0.3,0.3c0.9-0.4,3.4,2.4,4.9,1.6l0.3,0.2
	c0.4,0,1.5,0,1.8-0.2l0.4,0.2c0.1-0.1,0.2-0.3,0.4-0.3l0.1-0.2l-0.3-0.1l0.2-0.2l0.4,0.1l0.1-0.2l-0.1-0.5l-0.3-0.3
	c-1.2-0.3-2.6,0.3-3.5-1.1c-0.6,0.1-1.4-0.2-1.7-0.7c-0.1-0.3-0.1-0.9,0.1-1.1l0.4-0.3c0.3,0.1,0.7,0.1,1.1,0
	c-0.3-0.2-0.8-0.4-1.1-0.5l0-0.3l-0.4,0l-0.2-0.2l-0.1-0.4c-1.3-1.6-2.8-0.8-4-1.1c-0.7-0.4-1-1.2-1.6-1.7c-0.1-1.5-0.1-3.2,1.5-4.1
	c1.5-0.1,2.9-0.3,4.4,0.2c0.5,0.2,1.4,0.7,2,0.4l0.2-0.3c-0.2-0.2-0.5-0.6-0.8-0.7c-0.1-0.9,1-2.7,1.9-2.8c0.2,0.2,0.4,0.4,0.7,0.6
	c0.3,0.2,0.8,0.2,1.1,0.4l0.3,0.2c1.1-0.1,2.1,1,2.9,1.6l0.4-0.1l0.1-0.3c-1.1-0.3-0.6-1-0.9-1.4c0.1-0.6,0.7-1.2,0.2-1.9
	c-0.4-0.7-1.7-0.8-1.4-1.8l-1.5-1.4c-0.3-0.1-0.7-0.1-0.9-0.1c-0.3-0.4-0.8-0.7-1-1.1c-0.2-0.5-0.2-2.9,0.5-3.1l0-0.8
	c-0.2-0.2-0.3-0.6-0.3-0.9c0.2-0.4,0.9-1.4,1.2-1.6c1-0.8,3.6-1.3,4.5,0l-0.5,0.6l0,0.5c1.2,0.4,1.5,2,3.2,2.7
	c0.3,0.6,0.6,1.1,0.8,1.7l0.1-0.9c0.7-0.8,1.7-1.3,2.8-1.2l0.7-0.5l-1.1-0.9l-0.8,0.2l-0.8-0.4c-0.7-1.6,0.2-2.6,0.9-3.9l0.7-0.3
	l0.6,0.3l0.4-0.4c0.4,0,0.9,0.2,1.2,0.4l0.4,0.6c0.7,0.3,1.7,0.7,2.5,0.8l0.3-0.6c-0.4,0-1-0.3-1.2-0.6l-0.1-0.6l-0.8-0.3
	c0.1-2.4,1.8-2.4,3.6-1.6l0.3-0.5c-0.4-0.6-1.4-1-2.1-1.1c-0.1,0-0.4,0.1-0.6,0.1c-0.8,0-2.1-1-2.6-1.6L505,434
	c-0.4-0.2-0.7-1.1-0.8-1.4c-1.3-3,0.4-4.6,2.4-6.8l-1.3-0.8c-0.2-1.1-0.5-2.2-0.8-3.3c0.4-0.7,1.3-2.4,1.4-3.2c0.1-1.9-1-3-1.3-4.5
	l0.2-1.6c0.3-2.4,2.4-3.6,4.2-4.7c0.4-0.3,0.6-0.5,1.1-0.7c0.5-0.2,2.7-0.4,3.4-0.3c0.4,0.5,0.6,1.1,0.9,1.6c0.5,0.7,1.1,1.3,1.6,2
	l2.8-0.4l0.5,0.2c0.2,0.5,0.9,1.3,1.4,1.4c0.1-0.9,0.2-1.9,0.1-2.8l0.5-0.2l0.1-1.2c0.5-0.6,1.8-1.2,2.6-1.2
	c0.8,0.3,1.7,0.7,2.5,0.8l-0.3-0.6l0.1-0.5l0.8-0.4l-1.5-0.7l-0.2-1.2c-2.8-2.1-5.6-2.5-6.1-6.4l0.5-0.8c-2.1-0.2-2.3-2.7-3.8-3.6
	c-0.6-1.3-0.5-3.8-0.4-5.1l2-0.7l-1-1.7c-0.5-0.2-2.1-0.9-2.2-1.4l0.4-0.8l-0.4-0.8c0.8-1.4,0.9-3,2-4.2c-1.1-1-2-1-3.3-1.1
	c-0.9-1.4-1.9-4-1.7-5.7l-1.6-0.3c-1.2-0.9-1.9-2.4-2.2-3.8l-0.6-2.3c0-0.3,0.1-0.5,0.2-0.8l0.4-1.6c0.4-0.9,1.8-2.8,2.4-3.7
	l-0.2-2.1c-0.2-1.9,0-2.7,1.3-4.3l1.1-1.3c0.1-0.1,1.2-0.5,1.4-0.6c0.7-0.4,1.2-0.7,2-0.9l-0.6-1l-1-0.5l-0.8,0.3
	c-0.3-0.2-1.2-0.5-1.4-0.7c-0.7-0.6-1.1-1.6-1.7-2.2c-0.2-0.2-2.6-2.1-2.8-2.2c-1.3,0.7-2.7-0.5-3.1-1.6c0-1.1-0.3-2.5-0.1-3.6
	c0.1-0.4,0.3-0.8,0.4-1.1c0.4-1.5,0.9-3.4,0.9-4.9c0-0.5-0.4-1.1-0.4-1.6l0.3-2.7c0-0.1,0.9-2.4,1-2.4c0.1-0.2,0.2-0.2,0.3-0.4
	c0.6-0.7,1-1.5,1.6-2.1c0.8-0.9,1.3-0.6,1.8-2.3c0.5-1.9,0.3-3.8,0.6-5.7c0.3-1.6,1.2-3.1,1.7-4.6c0,0,0.2,0,0.3,0
	c2.1-1,2-2.1,2.2-4.5l0.3,0.1c0.2-0.4,0.5-1,0.9-1.2h0.5c0.2-0.6,1.2-2.3,1.7-2.8c0.8-0.8,4.4-3,5.5-2.9c1.1,0,2.1,0.6,3.2,0.4
	c1.9-0.3,3-1.3,5-0.6c1.8,0.7,2.6,2,4.2,3l1.5-0.8l0.5,0.5c1.4-1.9,3.3-2.9,5.6-3.2c0.3,0,0.7,0.1,1,0.1c0.9-0.1,1.6-0.5,2.6-0.4
	l0.6,0.4c0.2,0.5,0.2,1,0.2,1.6c0.5,1.1,2,1.4,2.9,1.9c0.9,0.4,1.9,2.1,3,2.9c0.7,0,1.6-0.2,2.2-0.5l0.3-0.5l-0.1-0.4l0.1-0.4
	c-0.3-0.7,0.1-1.5-0.2-2.4c1-2.5,1.6-1,1.7-4.5c-0.3-0.3-1.3-1.3-1.7-1.3c-0.9,0.7-2.1,0.4-3.1,0.9l-0.8-0.2l-0.4,0.4
	c-0.6,0.2-3.1,0.7-3.6,0.3c-0.7-0.7-1.2-1.8-1.7-2.6l-1.5-2.8c-0.4-1-0.8-2.7-0.9-3.8c0-0.2,0.2-1,0.2-1.2c-0.1-0.8-0.4-1.6-0.5-2.4
	c-0.2-1.3-0.2-2.7-0.4-4c-0.2-1.3-0.7-2.8-0.7-4c0-1.5,0.9-4.9,1.1-6.6c0.3-2.2,0.1-3.8-0.1-6c-0.1-0.7,0-1.3,0-2
	c0-0.7-0.2-1.6-0.2-2.3c0.1-0.9,0.5-1.9,0.6-2.8c0.1-0.5-0.1-1-0.1-1.5c0.1-0.6,0.4-1.3,0.5-1.9c0-0.6-0.2-1.4-0.2-2
	c0-1.4,0.8-7.8,1.3-9.4c0.6-2,2.3-4.5,2.6-6.6c0.2-1.7-0.1-3.7,0.2-5.4c0.4-2.2,1.5-4.5,2.1-6.7l0.5-3.3c0.1-0.6,0.2-1,0.3-1.7
	c0.1-1-0.4-2.2-0.3-3.2c0.2-1.5,0.8-3.2,1.1-4.7c0.5-2.5,0.5-7.1,3-8.8c0.7-0.1,2.1-0.1,2.7,0.2l1.8-0.7l0.4-0.7
	c0-0.6-0.3-1.4-0.7-1.8l0.1-0.7c-0.3-0.3-1.2-1.7-1.3-2.1c0-0.1,0-1.3,0-1.5c-0.1-1.2-0.3-2.4-0.3-3.6c0-0.7,0.1-1.6,0.1-2.3
	c-0.2-1.7-0.5-3.5-0.8-5.3c0-0.2-0.2-0.9-0.2-1c0.5-4.5,0.8-3-0.6-6.6l-0.9-2.2c-0.4-1.9-0.9-6-1-7.9c-0.1-1.1,0.2-2.4,0.3-3.5
	c0-0.4-0.1-0.8-0.1-1.2c0.1-1.1,0.9-2.2,0.6-3.3l-0.2-0.2c0.1-0.8,1.4-4.8,2-5.2c1-0.2,2.5-1.5,2.8-2.4l-0.7-1.2
	c-4.8-2.6-3.5-0.4-7-5.6l-0.2-0.2l-1-10.3l0.4-0.6l-0.1-0.3l-0.4,0l-0.5-1.9l-0.3-0.2c0-0.8,0.1-2.3,0.8-2.8l-0.4-0.4l0.3-0.3
	l-0.1-0.3l0.2-0.3l-0.3-0.2l0-0.4l-0.4-0.3c-0.2-0.3-0.2-0.9-0.2-1.2c-1.1-0.7-2.9-1.4-3-2.9c-0.2-0.1-2-1.5-2-1.6
	c-0.1-0.1-2.3-3.6-2.3-3.6c-0.5-1.3-1-10.8-0.9-12c0.1-1.1,0.8-2.6,1-3.7c0.3-1.5,0.3-3.3,0.7-4.8c0.3-1,1.2-2,1.6-3
	c0.3-0.7,0.3-1.6,0.5-2.3c0.6-1.6,1.3-3.6,2.1-5.1c0.3-0.5,1.4-1.1,2.1-1.1l0.7,0.5l0.7-0.2c0.4-0.7,0.7-1.4,0.9-2.1l0.5-0.1
	l-0.1-1.2l-0.8-0.9c0.4-0.4,1.1-1,1.7-1.2l0.3-0.5c-0.2-0.5-0.7-0.5-0.8-0.6c-0.7-0.7-1.1-1.8-2.1-2.3l-0.5,0l-0.5-0.3l-0.6,0.4
	c-0.5-0.4-1.6,0.2-2.4-0.1c-0.7-0.4-1.9-3.4-2.1-4.2c-0.1-0.4,0.2-0.7-0.3-1.3c-2.8,0-6.2-0.5-8.6-2L535,64c-0.6-0.3-2.3-1.1-3-0.9
	c-0.6-0.7-2.5-1.4-3.4-1.9c-0.1-0.1-2.9-0.5-3-0.5c-0.2-0.2-0.5-0.5-0.7-0.6l-0.3,0.2l-0.3-0.1l-1,0.5c-0.6-0.3-2.4,0-3,0
	c-0.7,0-1.8-0.3-2.4,0.4c-0.6-0.1-1.4,0-2,0.2l-0.9-0.3c-0.7,0.2-1.7,0.5-2.2,1l-1.2-0.2l-0.5-0.7l-2,0l-1.7,1.2l-0.6,1.5
	c-1.6,0.7-3.5,0.6-5.1,1.1c-1,0.3-2.5,0.8-3.4,1.2c0,0-1.4,1.3-1.4,1.3l-1.1,1c-0.8,0.5-3.5,0.9-4.4,1l-0.7-0.5
	c-0.9,0.4-1.7,1.5-1.7,2.5l-0.5-0.1l0.5,1.2l-0.7,0.4c-0.4-0.2-0.8-1.1-0.9-1.5c-0.3,0.3-2.5,0-3,0l-1.4-0.9c-0.2,0-1.7,0.2-1.7,0.2
	c-1.3-0.2-4.4-1.6-5.8-2.2l-0.9,0.3c-0.5,0.8-0.1,1.4-0.2,2.2c-0.9,0.9-2.4,1.4-3.6,1.4c-0.1,0-1-0.1-1-0.1c-0.9-0.3-5.6-2.5-6.4-3
	c-0.1-0.1-5.1-4.3-5.4-4.8c-0.8-1-1.4-2.3-2.3-3.2c-0.7-0.7-1.9-1.3-2.7-1.9c-0.5-0.4-1-1-1.5-1.4c-1.1-0.9-3.9-2.7-4.7-3.5
	c-0.9-1-2-2.7-2.4-4l-0.7-0.2l-0.7,0.4l-1.4-0.2c-0.6,0.2-1.3,0.9-1.5,1.5l-0.4-0.1l-0.8,0.5l-0.6-0.1l-0.2,0.2l-0.3-0.7l-0.7-0.2
	l-0.9,0.3l-1.6-0.6l-0.3-0.7l-0.6,0.2c-0.8,0.1-2.6-1-3.2-1.4l-0.6,0.9c-1.2,0.3-3.3,1.3-4.1,2.3c-0.6-0.2-1.2-0.7-1.7-1.1l-0.6,0.1
	l-0.5,0.9c0.1,0.7,0.2,1.5-0.4,2c0.1,0.2,0.3,1.1,0.6,1.1c-0.4,2.3-3,2.4-5.1,2.9c-0.4,0.1-0.7,0.5-1.2,0.6l-0.2,0.5l-0.3-0.1
	l-0.3,0.3l-0.5-0.2c-0.2,0-0.6,0.2-0.7,0.4l-0.1,0.6c-0.3,0.5-1.6,0.4-1.7,1.3l0.1,0.5l-0.2,0l-0.1,0.3h-0.4l0.5,0.5
	c-0.7,1.1-4.6,1.8-5.6,1.4l-0.5,0.4l-0.2,0.4l0.2,0.5l-0.2,0.3l0.2,0.3c0,0.6-0.1,1.2-0.5,1.7c-1.2,1-3.1,0.9-4.6,1.2
	c-1.6,0.3-2.3,1.9-4.6,2.1l-0.9,1.7l0.4,0.4c-0.3,0.2-1,0.3-1.4,0.2l-0.5,0.4c0.1,0.7-2.6,2.2-3.1,2.6c0,1-0.2,2-0.4,2.9
	c-0.9,0.8-1.9,1.4-2.8,2.1c-1,0.9-3.2,3.3-4.8,2.8l-0.3-0.5l-1.8-0.5c-0.6,0.9-1.5,0.6-2.4,0.8c-0.8,0.1-1,1-1.8,1.1l-0.2,0.3
	c-0.6,0-1.6,0.5-1.9,1l-0.5,0c-0.3,0.4-0.8,0.9-1.3,1c-0.4-0.2-1-0.3-1.4-0.1c-0.1-0.2-0.6-0.3-0.8-0.3c-1.2,0.3-2.9,2.2-3.6,3.1
	l0.1,0.8c-0.1,0.1-0.7,0.8-0.7,0.8c-0.3,0.7-0.7,2.5-0.5,3.3c-1.3,0.7-1.8,2.7-2.3,4c0,0,0.1,0.7,0.1,0.7c-0.5,0.6-1,1.3-1.3,2.1
	c-2.2,1.6-2.9,1.1-5.2,1.6l-1.7,0.6c-0.3,0.1-0.6,0.1-0.9,0.3c-0.6,0.4-1.2,1.2-1.8,1.6c-0.9,0.5-2.3,0.8-3.3,1.2
	c-0.3,0.5-0.8,1.2-1,1.8c0,0.1,0,0.6,0,0.7c-0.2,1-0.9,1.7-0.9,2.8l0.4,0.8l-0.2,1.4c-0.6,0.7-1.7,1.7-2.5,2.1l-0.3,0.6l0.2,0.8
	c-0.3,0.3-0.6,1.1-0.5,1.6c-1,0.7-1.2,2.4-2,3.4l-0.5,0.1c-1.1,1.9-2.8,4.1-4.8,5.1l0.1,1.2c-0.3,0.3-0.6,0.7-0.9,0.9
	c-1.3,1-1.4,2.1-1.7,3.7c-2.6,1.6-5.4,2.6-8.3,3.6c-0.7,0.2-2.1,1.9-2.4,2.6c-2.5,1.4-5.9,1.7-8.6,2.2c0,0-0.2,0.2-0.3,0.2
	c-0.4-0.1-1.3-0.2-1.7,0.1c-1.2,0.8-2.5,1.6-3.6,2.4c-0.7,0.5-1.3,1.3-2,1.9c-1.1,0.8-2.5,0.4-3.6,1.7c-0.4,0.5-1.3,1.9-1.6,2.5
	l-0.2,1.1c-0.5,2.2-0.7,3-2.2,4.7l-1.1,1.2c-1.4,1.1-3,2.2-4.6,3.1c-0.7,0.4-1.6,0.2-2.9,1.2l-0.1,0.5c-0.3,0.2-0.6,0.6-0.8,0.9
	c-0.4,0.1-1.1,0.4-1.4,0.8c0.5,0.9,0.5,3.1,0.4,4.1c-0.1,0.4-0.4,0.9-0.5,1.3c0,0.1-0.1,2,0,2.1c0,0.2,0.3,0.6,0.3,0.7
	c0.2,1.8-0.1,2.8,0.7,4.7l-0.4,1l-0.4,0.2l-0.1,0.4l-0.7,0.7c0.1,0.3,0.1,0.5,0.2,0.8h-0.4c0,0.1-0.1,0.2-0.1,0.3
	c-0.1,0.2-0.9,1.7-1,1.8c-0.1,0.4-0.1,0.6-0.2,1l-0.4,2.1c-0.2,0.9-0.7,1.7-0.6,2.7c-1.9,0.7-1.6,5.9-3.7,7.2l0,0.7
	c-2.4,2.3-3.6,3.1-7.2,3.6c-0.4,0.9-1.1,1.5-1.6,2.3c-0.9,1.3-1.4,3-1.6,4.6c-0.4,3.1,1.9,6.2,0.9,9.2c-0.3,0.9-1.1,1.8-1.4,2.7
	c-0.4,1.1-0.2,2.3-0.6,3.4c-0.4,1.1-2.5,3.1-2.7,3.8c-0.3,1-0.2,2.1-0.5,3.1c-0.4,1.6-1.4,3.1-1.7,4.8c-0.1,0.8,0.4,1.6,0.2,2.5
	c-0.5,2.1-1.5,2.5-2.7,3.9c-1.5,1.8-1,3.1-2,4.4c-3.4,4.1-5,4.9-9.8,7.2l-0.6-0.3c-0.9-0.1-2.3,1-2.8,1.7l-0.1,1.1
	c-0.7,0.8-1.3,1.8-1.8,2.7c-0.7,1.3-1.7,2.8,0,3.8c0.7,1.1-1.4,3.3,0.2,6.3c-0.2,0.5-0.5,1.2-0.8,1.6c-0.6,0.7-1.5,1.7-2.2,2.3
	c-0.1,0.1-0.6,0.3-0.7,0.4c-0.8,0.7-1.3,2.4-2.6,2.5l-0.5,0.6l-0.1,1.3c0.7,0.5,0.3,2.2,0,2.8c-0.4,0.7-1.2,1.5-1.7,2.1
	c0,0-2.3,1.3-3.3,2.6l-0.3,0l-0.5,1.3l-0.3,0.2v1.4c0.5,1,1.4,0.8,1.8,2.3l-0.2,0.5c-0.3,0.7-2.2,1.7-2.7,2.6
	c-0.8,1.2-1.6,2.6-2.1,4c-0.7,1.9-1.2,2.4,0.1,4l0,0.9c-0.4,0.8-1.7,2.6-2.7,2.6c-0.1-0.2-0.3-0.4-0.5-0.4l-0.5,0.1
	c-0.2,0.3-1.2,3.3-1.2,3.8h0.3c0.4,0.2,0.5,0.8,0.9,1.1c0.4,0.3,0.9,0.5,1.3,0.8c0.3,0.2,1.5,1.6,1.7,1.7c0.9,0.6,2.2,0.5,3.3,1.4
	c0.1,0.4,0.4,1.2,0.8,1.5l0.2,1l-0.4,0.8l0.9,1.5h0.9c1.2,1.4-0.2,2.1,0.5,3.3c-0.1,0.4-0.3,1.2-0.7,1.3l0.4,0.9l0.8,0.3
	c0.4,0.4,0.9,1.2,0.9,1.7l-0.2,0.6l-0.3,0.1c-0.2-0.2-0.7-0.4-1-0.3l-0.2,0.5l0.3,0.4l0.4,0.1l0.6-0.4l0.6,0c0.6,0.6,1.9,1.2,2.8,1
	c0.4,0.5,0.4,1.5,0.3,2l-0.3,0.1l-0.3,0.7l0.5,2.2l1.2,1.1l0.2,0.6l-0.2,0.7l-0.9,0.8l-1.9-0.1l-0.3-0.4l-0.1-1.5l-1.1-0.8l-3.8,0.4
	l-0.5,0.8l0.4,0.8l0,0.8c-0.8,1.1-4.5,6.6-6,6.4c-0.3,0.4-0.1,1.5,0,2c-0.2,0.5-0.6,1.1-1,1.4l0.1,0.8l-0.6,1l0.2,1
	c-0.2,0.5-0.8,0.6-1.1,1.3l0,0.5l-0.4,0.5l0,0.4c0.6,0.3,0.7,1.8,0.6,2.3l0.9,0.7c0.1,0.6,0.7,1.7,1.2,2c0.1,0.3,0.2,0.7,0.2,1.1
	c0.1,1.5-2,5.7-2.7,6.9c-0.2,0.3-0.8,0.7-1.1,0.8l-1.9-0.5l-0.3,0.2l-1.5-0.2l-0.2-0.3l-0.5-0.1l-0.7,0.5c0.5,0.4,0.9,1.5,1,2.1
	l-0.6,0.5l-0.7,0.1l-0.2,1.7l2,1.4c0.8,1.4-1.5,4.6-2.6,5.3c-1,0.6-3.9,0.8-4.8-0.3L213,375c0.1,0.6-0.8,1.4-0.9,2.2
	c-0.8,0.3-1.8,0.4-2.5,0.8c-0.6,0.3-2.2,1.7-2.6,2.3l-0.1,1.9l-0.5,0.4l0.2,0.8l0.4,0c0.7,1.1,1.7,1.2,2.5,2.5
	c0.1,0.4,0.1,1.3-0.2,1.6c-0.6,0.7-2.9,2.3-3.8,2.6l-0.7-0.2l-0.3-0.7l-0.6-0.3l-0.4,0.1l0.1,0.7l0.7,0.3c0.5,1.2,1.6,1.8,1.9,3.2
	l-0.1,0.4c-0.3-0.1-1,0.1-1.3,0.2l-0.1,0.3c0.3,0,2.1,0,2.1,0c0.8-0.2,1.4-1.1,2.3-1c0.6,0.2,2.2,1.3,2.5,1.7c0.5,0.6,2,3.1,1.7,4
	c0.6,1.2,2.7,2.1,2.6,3.6l0.8,0.4l1.6,0.9c1.2,0.4,3.1-0.6,4.2,0.1c1,0.7,0.7,1.9,1.3,2.7c0.7,1.1,1.8,2.1,2.7,3.1
	c1.7,2.2,2.8,5.4,0.6,7.7c-0.2,0.7,0.1,1.8,0.6,2.3l-0.1,0.5c-1.1,0.6-2.3,2.3-2.6,3.5c0,0.1,0,0.7-0.1,0.8
	c-1.4,2.2-2.7,4.5-4.3,6.5l-1.1,0.1l-0.2,0.3l0.1,1.2c-0.9,1-2.5,2.8-2.3,4.3c0.4,0.4,0.8,1.3,0.7,1.9l0.8,0.9
	c1,0.1,2.3,0.9,3.1,1.5c0.8,0.9,1.2,3.9,1.5,5.1c0,0.2-0.1,0.6-0.1,0.8c0.2,0.8,0.5,1.7,0.5,2.5c-0.1,1.2-0.4,2-0.2,3.4l-0.3,0.3
	c0,0.3,0,0.8,0.2,1.1l-0.2,1.2l-0.7-0.1l-0.3,1.9l0.8,0.1l-0.5,2.4l0.4,1l-0.1,0.4c0.7,1.1,1.3,2.4,1.7,3.7
	c-0.5,0.4-1.4,0.9-1.8,1.4c-0.6,0.6-0.7,1.7-1.6,2c-0.4,0.4-0.2,1.7-0.1,2.2l0.7,0.9l2.2,0.5l0.2-0.5l1.6,0c0.5-1.3,1.3-1.6,1.9-2.6
	c0.4-0.6,0.3-1.2,0.9-1.7c1.2-1,1.7-1.3,2.7-2.7c0.4-0.6,0.2-1.9,0.4-2.6c0.6-0.9,4.3-0.6,4.2,0.7c0,0.3-0.5,1.1-0.6,1.4
	c-0.2,0.5-0.3,1.5-0.8,1.8l-0.7,1.7l-1.5,0.6l2.3,6.5l1.8-0.2c0-0.2-0.1-0.5,0-0.7l0,0.3c0.4,0.1,1.5,0,1.8-0.2
	c0.8,0.2,1.1,0.6,1.7,1c2.1,0.1,2.6,0.6,3.1,2.7l0.5,0.1c-0.7,1.6-0.6,3.5-2.1,4.7c-0.7,0.5-1.6,0.9-2.3,1.4c-1.8-0.6-3.6-1-5.5-0.5
	c-0.2-1,0.4-2.7,1-3.5l1.3,0l-0.6-1.1c-1-0.1-2.2-0.5-3-1.1c-1.3,0.1-3.1,0.5-4.2,1.2c-0.6,2.3-2,7.8-3.1,9.9c0,0-0.6,0.5-0.6,0.6
	l-0.8-0.3c1.5,2.9,0.7,3.8-0.4,6.7l-0.7,0.5c-0.4,5.7-3,5.1,2,7.9c0.8,1.2-0.5,3.2-0.9,4.3c-1,2.2-2.3,6.6-4.2,8.3
	c-1.5,1.4-5.3,4.3-7,5.2c-0.7,0.4-1.5,0.6-2.2,0.9c-3.6,1.7-7.1,3.9-10.8,5.6c-1,0.4-2.2,0.8-3.2,1.2c-1.1,0.4-2.2,1-3.4,1.1
	c-0.7,0-1.9-0.6-2.5-0.9c-1.5,1-6-1.5-7.3-2.5l0-0.5l-0.4-0.7l-0.4-0.3l-0.4,0.5l-0.3-0.1l-0.3,0.5c-0.8,0.1-2.6-0.8-3.3-1.2
	l-0.3-0.5c-0.2,0-0.5-0.1-0.6-0.2l-0.2-0.3h-0.3l-0.2,0.4l0.1,0.3l0.6,0.6c0,0.6,0.3,1.7,0.8,2.2c0.2,0.2,0.5,0.3,0.7,0.5
	c0.2,0.2,0.3,0.5,0.4,0.7c1.2,1.2,4.1-0.5,5.7,2.1c-0.6,2.9-1.5,6.4-4.6,7.6c-1.9-0.6-2-1.9-3.6-2.6l-0.9,0.3
	c-0.1,0.7-1.2,1.4-1.2,1.9l-0.4,0.1c0.4,0.3,0.8,0.9,0.8,1.4c-1.1,0.9-4,4.1-5.4,4c-0.3-0.2-0.9-0.3-1.3-0.2
	c-0.3,0.4-0.5,1.3-0.4,1.8c-0.4,1.2-2.9,2.4-3.9,3l-0.5-0.1l-0.2,1.1c-0.9,0.5-1.9,1.1-2.9,1.4c-0.2,0.5-1.6,1.7-2,1.9
	c-0.6,0.3-1.5,0.4-2.1,0.8c-0.5,0.3-0.9,1.1-1.4,1.5c-1.3,0.8-3.1,1.2-4.5,1.4c-0.1,0-0.7,0-0.8,0c-0.5,0.2-1,0.7-1.5,0.9
	c-2,0.9-4.1,1.4-6.1,1.9c-0.4,0.1-0.9,0.4-1.3,0.5c-1.1,0.3-2.3,0-3.5,0.1c-0.5,0-0.9,0.3-1.9,0.3l-0.4,0.5l-0.7,1.1
	c-0.9,0.8-2,0.7-2.6,2.1l-0.4-0.1l-0.1,0.2l-0.3,0.2c-0.6,0-1.9-0.1-2.3-0.6l0.3-0.9l-0.3-0.8l-0.5,0c-0.1,0.1-0.5,0.4-0.6,0.5
	c-0.1,0.3-1.6,3.5-1.5,3.9c-0.4,1-2.4,2-3.3,2.4c-0.5,0.2-1.3,0.1-1.8,0.2l-0.5-0.3c-1,1.5-1.3,3.3-2.4,4.8l1.4,0.7l1.2-0.5l0.9-1.4
	c1.2-0.3,3-0.2,4.2,0.2l0.3,1l-0.8,2.4l0.4,0.9c0.2-0.3,0.5-1.1,0.4-1.4c1-1.4,4-0.4,5.2-0.3c1.3,0.1,2.5-0.4,3.8,0.2
	c0,0.2,0,0.6,0.2,0.8l0.3,0.3l0.4-0.5c0.3,0,0.7-0.4,0.9-0.6c1.2,0,2.8-0.2,3.9,0c1.3,0.2,4.7,1.3,5.9,1.8c0.7,0.3,2.7,1.6,3,2.4
	l-0.2,1l-0.9,0.7l0.7-0.1c0.4,0.5,1,1,1.1,1.7c0-0.4,0.2-1.2,0.5-1.5c1.6,0.4,2.9-0.5,4.6,0.1l0.2,0.7l0.4-0.7l0.6,0.7l-0.1-1.4
	l-0.5-0.6l-0.4,0l-0.1-0.5c0.4-1.4,1.4-2,1.4-3.7c0-1.2-0.5-1.6,0.1-3.2c0.6-0.1,1.2-0.3,1.8-0.3c0.1,0,0.6,0.2,0.8,0.2
	c2.1,0.2,4.3-0.1,6.4,0l0.5,0.4c-0.2,0.3-0.8,0.5-1.2,0.6l1.4,0.1l0.9,0.7l1,0c0.5,0.4,1.4,1.1,1.2,1.9l0.5,0.2l0.4-0.5
	c0-0.6,0.5-1.2,0.5-1.9l1-0.1l0.4,0.4l0.2-0.4c1-0.3,2.9,0.4,3.8,1c0.2,0.7-0.2,1.1-0.3,1.7c-0.1,0.4,0.1,0.7-0.2,1.2l0.3,0.8
	c-0.1,0.5-0.5,1.4-1,1.8l-0.1,0.5c0.6-0.4,1.8-0.1,2.5,0.1c0.2,0.4,0.4,0.8,0.7,1.1l1.6,0.8l-0.2,1.8l0.6,0.6c0,0.3,0.1,1,0.3,1.3
	l0.4-0.1l-0.2,0.5l0.3,0.3l0,0.2l0.4,0.4l0.3-0.2c0.2-0.4-0.1-1.1-0.2-1.4l0.4-0.7l-0.3-0.4l0-0.5l0.6-0.5c0-0.4,0.1-0.7,0.2-1.1
	c0.8-1,3.3-1.9,4.1-0.6c0.1,0.3,0.1,0.7,0,1l0.3,0.4l0.3-0.2l0.3-0.5c-0.1-0.7-0.3-2.7,0.1-3.3c-0.3-0.9-0.7-2.2-0.3-3.2
	c0.9-1,3.1-1,4.3-0.4l0.1,0.5l-0.3,0.8c0.4,0.3,0.6,1.1,0.6,1.5l0.8-0.4l0.2,0.3l0,0.9l-0.2,0.3c0,0.2,0.2,0.6,0.2,0.9
	c0,0.2-0.2,0.5-0.2,0.7c-0.1,0.8,0.1,1.8,0.2,2.7c0.2-0.3,0.7-0.9,1-1c1.7,1.1,2.6,1.8,2.1,3.8c-0.1,0.5-0.4,0.9-0.4,1.4l-0.2,0.1
	c-0.3,0.5-0.3,1-0.5,1.5c-0.3,0.7-1.2,1.2-1.8,1.6l-0.2,0.9l0.5-0.4l0.6,0.1c0.3,0.2,0.5,0.7,0.6,1c0,0,0.2-0.2,0.3-0.2
	c0.3-0.5,0.7-1.7,1.2-2c0.4-0.3,0.8-0.1,1.2-0.8l-0.4-1.2c0.2-0.7,0.5-1.4,0.3-2.1l1.7-0.9l0.1-1.1l-1-1.2c0.4-1.4,1.2-2.9,1.3-4.3
	c-0.3-0.1-0.5-0.7-0.6-1c0.2-0.3,0.4-0.9,0.3-1.3l-0.9-1.3l0.8-1.9c0-0.6-0.7-1.5-1.1-1.9l0.7-1.3l-0.4-1.3c0.4-0.4,0.6-1.3,0.6-1.8
	l0.5-0.2c0-0.7,0.1-1.6,0-2.3l0.3-0.1l0.4-0.9c1.1,0.1,1.1-1.1,3.5-0.4c0.9,1.3,0.8,2.4,0,3.7c0.1,0.4-0.1,1.1-0.4,1.4l1.1,1
	l-0.3,0.2c0.4,0.4,0.6,1.1,0.9,1.6l-0.1,0.9l0.3,0.7l-0.3,0.8l0.4,1.1c0.6,0.1,1.1,0.2,1.7,0l0,0.2c0.2,0.1,0.8,0.1,0.9,0.1l2-1.6
	c2.1,0.4,5.7,1.4,6.3,3.9c-0.1,1.3-0.9,2.5-2,3.1l0.6,1.5l-0.9,1.2c0.1,0.3,0,0.8-0.2,1.1l0.5,0.5c-0.4,0.7-1,1.4-1.4,2.1
	c-0.2,0.3-0.2,0.7-0.4,1c-0.2,0.3-0.6,0.7-0.9,0.9c0.3,0.9,0.8,1.8,1.1,2.7c0.1,0.4-0.1,1,0,1.5c-0.5,0.7-1.2,1.5-1.7,2.3
	c-0.6,1.1-0.4,1.8-1.6,3.2c-0.5,2.1,1.7,3.5-0.6,6.8l-0.9,0.6l-0.2,0.6l0.1,0.4l0.8,0.7l0.3-0.1l-0.2-0.4l0.3-0.2l0.2-0.6
	c0.7,0,1.9-0.1,2.5,0.4l0.7-0.2l-0.5-0.4l0.3-0.6l-0.2-0.7l0.6-0.5l0-0.4c0.1,0.1,0.5,0.2,0.6,0.1l0.5,0.3l0.4-0.1l-0.4-0.5l0.2-0.8
	l0.6,0.1l0.5-0.2l0.6,0.4l0.4-0.2l0.5,0.2c0.8-0.5,0.6-1.7,1.5-2.3c-0.2-0.6-0.6-1.1-1-1.6l-1.2-0.2c0-1,0.2-2,1-2.7
	c0.6-0.3,1.6-0.1,2.1,0.4c0.3,0.8,1.1,1.8,1.8,2.2c0.1-0.6,0.5-1.3,0.9-1.7h1.2l0.5,0.6l0.1,0.6c0.2,0.1,0.5,0.5,0.5,0.8
	c-0.1,0.5-0.3,1.1-0.5,1.6l0.3,0.7l-0.2,0.9l0.3,0.4c0.7-0.1,2.2-0.2,2.8,0.3c-0.3-0.3-1-0.9-1-1.4c0.1-0.6,0.3-1.2,0.6-1.7l0.3-0.2
	c-0.1-0.7,0.3-1.7,1.1-1.9l-0.6-0.9c0.5-1.5,0.4-3.1,1-4.5l-0.7-0.8c-0.1-0.5-0.1-0.9-0.1-1.4l0.8-0.8c-0.4-1.3-1.9-2.3-2-3.3
	c0.4-0.4,0.5-1.6,0.5-2.1l-1-2c0.5-0.9,1.1-1.7,1.7-2.5l1.1-0.1l0.7-2.8l-1.3-1.2l0-1.6c0.7-0.8,1.3-1.9,0.9-3l-0.8-0.6l0-0.7
	l0.5-0.2l-0.3-0.9l-0.6-0.2l0-1.4c0.6-1.1,1.6-2,2.8-2.4c0.8,0.1,1.8,0.4,2.5,0.8c0.2,1,1,2.8,2.2,3c0.8-0.7,1-1.8,2-2.2
	c1.1,0,2.7,0.2,3.6,0.8c0.3,0.7,0.4,2.1,0.3,2.7c-0.1,0.4-0.3,0.8-0.4,1.2c-0.1,0.5-0.2,1-0.3,1.4c-0.4,1-1,2-1.3,3.1
	c-0.1,0.2-0.1,0.9-0.2,1c-0.2,0.5-0.7,1.1-1,1.6c0,1.5,0.8,3.7,2.1,4.6c-0.2,0.6-0.3,1.9,0,2.5l0.4,0.3c2.3-1.9,1.1-4.6,4.8-5
	c0.3-0.6,0.6-1.3,0.8-2c0.4-1.5-0.2-2.3,1.9-3l-0.1-0.4c0.8-1.5,1.6-3.6,2.7-4.8l1.9-0.4l0.3-0.6c1.7-1,1.6,0,2.9-0.1l0.3-0.2
	c0-0.4-0.3-0.7-0.2-1.1L254,569L254.1,568.6L254.1,568.6z"/>
<path class="st4" d="M255.6,571.3c0.5,0.6,1.3,1.2,1.7,1.9c0.5,0.8,0.3,1.7,1.1,2.5l0,0.6c-0.9,0.8-1.4,0.3-2.2,0.7l0,0.3l-0.3,0.3
	c-0.4-0.1-1.1-0.1-1.3,0.3c0.1,0.4-0.2,0.8-0.4,1.2c-0.3,0-0.7,0.3-0.9,0.6l-0.6,0l-0.4,0.4c-0.1,0.4,0.1,1,0.3,1.3
	c-0.3,0.3-1,1-1.1,1.5c0.1,0.4,0.3,0.8,0.5,1.2l0.4,0.2c1.5-0.4,2.8-0.3,3.7,1.1c0.6,0.3,1.3,0,1.9,0.1c1,0.2,1.8,1.6,2.7,2.1
	c0.3,0,0.6-0.1,0.8,0c0.2,0,0.3,0.2,0.5,0.2l0.2,0c0.7-0.5,0.5-1.1,1.6-1.8l0.2-2.8l-0.5-0.6c0.2-0.7,1.8-1.8,2.6-1.8l0.4,0.2
	l0.4-0.5l-0.2-0.3l0.6-0.6c0.4,0,0.9-0.2,1.2-0.5v-0.5l-0.3-0.4c-0.3-0.1-0.7-0.2-0.9-0.5l-0.3,0.1l-0.2,0.4
	c-0.3,0.1-0.6-0.2-0.9-0.1c-0.3,0.1-1.3,0.9-1.5,0.9c-0.4-0.4-1-0.2-1.4-0.1c-0.3-0.2-0.5-0.5-0.7-0.8c-0.5,0-0.9-0.2-1.4-0.4
	c-0.1-0.1-0.2-0.4-0.1-0.5l0.2-0.3c0.6-0.1,2.2-1.5,2.5-2.2l0.4-0.2l0.7-1.4c-0.2-1.7-1.5-2.8-3-3.4l-0.8,0.1l-0.6-0.9
	c-0.5,0.2-1,0.8-1.1,1.3l-1.2,0.6c-0.7-0.3-1.8-0.3-2.4,0.3L255.6,571.3L255.6,571.3z"/>
<path class="st4" d="M291.8,602.3c0.2-0.1,0.4-0.2,0.6-0.3c0-0.2,0.1-0.4,0.1-0.7l0.2-0.2v-0.2c-0.1-0.1-0.3-0.2-0.4-0.2
	c-0.6-0.4-0.7-1.4-0.5-2.1l0.3-0.3l0.3,0l0.2-0.1l0-0.3l0.2-0.2l0.3,0l0.3,0.3l0.3-0.1c-0.2-0.6-0.5-0.7-0.5-1.4l0.2-0.1l0.4,0.1
	l0-0.2c-0.3-0.3-0.6-0.6-0.9-0.8c-0.1-0.2,0.1-0.5,0.2-0.7c0.1-0.3,0-1,0-1.4l-0.2-0.2c-0.6-0.2-1.3,0.8-2.1,0.7
	c-0.7-0.1-0.7-1.5-1.8-1.1c-0.6-0.4-1.2-0.8-1.8-1.3c-0.1-0.6,0-1.3-0.1-1.9c0-0.4-0.2-0.8-0.3-1.3c0-1.1,0.9-2.3,2-2.5
	c0.1-0.1,0.8-1.3,0.9-1.5l0.4-0.1l0.1-0.2c0.2-1.2-1.7-2.1-1.8-4.2c-0.1-0.1-0.3-0.2-0.4-0.2c-0.1,0-0.3,0.1-0.4,0.1
	c-0.1,0.2-0.1,0.4-0.1,0.5c-0.3,0.2-1.1-0.4-1.5-0.2c-0.2,0.3-0.4,0.2-0.7,0.2c-0.2,0.1-0.5,0.6-1.1,0.8l-0.2-0.5l0,0.4
	c-0.3,0.2-0.5,0.7-0.7,1c-0.2,0-0.6-0.1-0.8,0.1c-0.4,0.3-0.4,1-0.3,1.4c-0.2,0.1-0.3,0.1-0.5,0.2v0.2l0.2,0.1
	c0.1-0.1,0.3-0.1,0.4,0c0.2,0.6,0.3,1.3,0.6,1.8c0.1,0.3,0.4,0.5,0.5,0.8c0.4,0.8-0.6,2.8-0.9,3.4c-0.4,0.1-0.9,0.2-1.2,0.5v0.3
	c0.3,0.1,0.5,0.4,0.7,0.6c0.4-0.1,0.8,0.1,1.1,0.1c0.1,0.1,0.3,0.3,0.5,0.3l0.1,0.4l0,0.2c0.2,0.1,0.4,0.4,0.4,0.7l-0.1,0.1l0,0.2
	c0.8,0.6,1,0.5,0.6,1.8c0.4,0.7,0.6,1.2,0.4,2.1c0.2,0.1,0.3,0.3,0.5,0.5c-0.1,0.2-0.1,0.5,0,0.7l0.2,0.2c0.1,0,0.4-0.1,0.5-0.1
	l0.2,0l0-0.2l0.2,0.1l0,0.2l0.3,0.2l0.1,0.2l0.2,0.1c0.2,0,0.5,0.1,0.7,0.2l0-0.2l0.2-0.1l0.2,0.2l0.2-0.2l0.3,0l0.2-0.1l0.2,0.1
	l0.2,0.3l0.2-0.2c0.2-0.1,0.3-0.1,0.5-0.1c0.3,0.1,0.6,0.4,0.8,0.6c0.1,0.4,0.1,0.9,0.1,1.4c0.1,0.1,0.3,0.2,0.4,0.4l0,0.4
	C291.5,601.8,291.7,602,291.8,602.3L291.8,602.3z"/>
<path class="st4" d="M575.7,67.8l1.2-0.2l0.6-0.7l0.3,0.1l0.4-0.2l-0.1-0.4c1-1.1,0.8-3.1,3.4-3.8c0.1-0.4-0.2-1.1-0.5-1.4
	c-0.7-0.4-2,0.2-2.6-0.2l-0.2-0.5l0.3-0.8l-0.2-0.2l-1.1-0.1l-1,0.7l-0.9-0.3c-0.6,0.5-1.6,0.8-2.3,0.4l-0.2-0.3l0.1-1.1l0.5-0.4
	c0-0.3-0.1-1.1,0.1-1.4l-0.4-0.2c-0.1-0.3,1.1-1.8,1.4-2.2l0.9-0.3l0-0.2l-0.2-0.7l-1.6,0l0,0.4l-0.5,0.7l0.2,0.8
	c-0.2,0.3-0.6,0.6-0.9,0.7c-0.1-0.2-0.5-0.3-0.7-0.3l-0.2,0.3l-0.5-0.3l-0.1,0.2l0.3,0.3c0,0.2-0.4,0.6-0.5,0.8l-0.2,1.2l1.3,2.3
	c1.1,1.8,1.6,2,1.2,4C573.3,65.7,574.6,67.3,575.7,67.8L575.7,67.8z"/>
<path class="st4" d="M596.6,83l1.3-0.4l0.4-1.1c-0.4-1.2-0.4-3.3-0.4-4.5c-0.1-0.1-0.7-0.8-0.8-0.9c-0.3-0.2-0.9-0.3-1.2-0.6
	c-1-0.7-1.9-1.7-2.9-2.4c0,0-1-0.2-1.1-0.3l-0.7,0.3c0.2,0.5,0.9,1.1,1.4,1.2l0.2,0.6c0,0.4-0.6,0.9-0.9,1l-0.2,0.8l0.5,1.2
	c3,1.7,1,1.9,3,4.5C595.6,82.7,596.2,82.9,596.6,83L596.6,83z"/>
<path class="st4" d="M550.5,64.6c0.8,0.4,1.6,0.3,2.3-0.3c0.5-3.2,1.3-3.6,0.1-6.7l-1-0.8l-1.3,0.2c-0.7,0.7-1.7,1.4-2.5,1.9
	c0,0.7-0.1,1.5,0,2.2c0,0.3,0.5,0.7,0.5,1.5C549.3,63,550.2,63.9,550.5,64.6L550.5,64.6z"/>
<path class="st4" d="M149.6,613.7l0.3,0.1c0.5-0.6,1.1-1.5,1.8-2c1.6-1.2,2.4,0.6,2.9-2.9l-0.1-0.5l0.2-0.9l-0.4-0.5l-0.6-0.1
	l-0.4-0.4V606l-1.9,1.1c-0.3,1.1-0.5,2.3-0.6,3.4C149.8,611.5,149.1,612.4,149.6,613.7z"/>
<path class="st4" d="M532.6,358.7c-0.2-0.3-0.5-0.7-0.8-0.9c-0.5-0.4-1.4-0.6-2.1-1c-0.7-0.4-1.4-0.9-2.1-1.3
	c-0.4-0.3-0.8-0.8-1.2-1c-0.8-0.4-1.8-0.6-2.6-0.9c-0.3,0.3-1,0.4-1.3,0.3c-0.5-0.5-1.6-1.1-2.4-1l-0.3,0.6c0,0,0.3,0.3,0.4,0.3
	c1.2,0.4,2.7,0.5,3.8,1.1c0.1,0.1,0.3,0.4,0.5,0.4c0.5,0.2,1.2,0.5,1.7,0.7c0.1,0,0.5,0,0.6,0c0.7,0.1,1.9,0.6,2.2,1.3l0.7,0
	l0.3-0.2C530.6,357.8,531.6,358.5,532.6,358.7L532.6,358.7z"/>
<path class="st4" d="M672.9,111.2c0.3,0.2,0.8,0.6,0.8,1l0.5,0.2l0,0.2l0.5,0.1l1.1-3.7l-1.1-0.8l-0.6,0.5l-0.4-0.2l-0.7,0.2
	C673.3,109.3,672.7,110.4,672.9,111.2L672.9,111.2z"/>
<path class="st4" d="M568.3,234.7c0.6-0.2,0.9-0.9,1.5-1.1v-0.4l-0.5-0.4c0-0.6-1.1-1.5-1.7-1.4l-0.4,0.2l-0.2,0.6l0.1,0.4l0.5,0.3
	c-0.1,0.5-0.1,1.2,0.3,1.6L568.3,234.7L568.3,234.7z"/>
<path class="st4" d="M579,297.7l0.2-0.5c0.7-0.1,1-0.8,1.6-1.2l0-0.5l-0.3,0l-0.1-0.5l-0.5,0c-0.6,0.2-1.1,1-1.2,1.6L579,297.7
	L579,297.7z"/>
<path class="st4" d="M303.6,587.3c0-0.1,0.2-0.3,0.3-0.4l0.1-0.2c-0.3-0.2-0.4-1-0.7-1.4l-0.5-0.2l-0.2,0l-0.3-0.2l-0.4,0.1
	l-0.1,0.2l0.2,0.6l0.2,0.1l0,0.4l0.2,0.1c0.1,0.1,0.1,0.4,0.1,0.5c0.1,0.2,0.4,0.2,0.6,0.4L303.6,587.3z"/>
<path class="st4" d="M305.8,572l-0.2,0l-0.1,0.1c0,0.3-0.1,0.6,0,0.9c0.1,0.1,0.1,0.3,0.2,0.4c0,0,0.6,0.9,0.6,1.1l0.2,0
	C307.3,574,306.6,572.1,305.8,572z"/>
<path class="st4" d="M442.9,525l0.2-0.5l-0.3-0.5l0.2-0.6l-0.3-0.5l-0.6-0.3l-0.2-0.7l-0.3,0.2c0.1,0.1,0.2,0.5,0.2,0.6l0.3,0.4
	l-0.1,0.2c0.3,0.2,0.3,0.6,0.3,0.9C442.4,524.6,442.7,524.8,442.9,525L442.9,525z"/>
<path class="st4" d="M596.7,185.7l0.2-0.1l0.1,0.2h0.3l0.4-0.3l-0.3-0.1c-0.1-0.3-0.4-0.8-0.3-1.1l0.5-0.1l-0.2-0.2l0.2-0.3
	l-0.3-0.3l-0.3,0.1C596.5,183.9,596.6,185.2,596.7,185.7L596.7,185.7z"/>
<polygon class="st4" points="580.4,298 580.4,298.4 580.7,298 580.6,297.7 580.9,297.6 581.1,297.3 580.9,296.7 580.3,296.8 
	579.9,297.2 579.9,297.6 580.4,298 "/>
<polygon class="st4" points="359.6,548.3 359.6,548 359.8,547.6 360.2,547.6 360.3,547.2 359.9,546.9 359.3,547.1 359.1,547.6 
	359.2,548.1 359.6,548.3 "/>
<path class="st4" d="M513.6,423.7l0.3,0.2l0.3-0.3l-0.1-0.3l-0.2-0.2c-0.3,0-0.8,0.2-1.1,0.4v0.4l0.2,0.2L513.6,423.7L513.6,423.7z"
	/>
<path class="st4" d="M186.8,585c-0.1,0.2-0.1,0.6,0,0.9l0.4-0.2l0.1-0.3L186.8,585L186.8,585z"/>
<polygon class="st4" points="187,587.3 187,587.8 187.7,587.7 187.5,587.3 187,587.3 "/>
<g>
	<path d="M75.1,419.7c0-0.6-0.2-1.1-0.7-1.6c-0.5-0.4-1.3-0.8-2.5-1.1c-1.4-0.3-2.6-0.9-3.4-1.5c-0.8-0.7-1.2-1.5-1.2-2.5
		c0-1.1,0.4-2,1.3-2.7c0.9-0.7,2-1.1,3.4-1.1c1.5,0,2.7,0.4,3.6,1.2c0.9,0.8,1.3,1.8,1.3,2.8l0,0.1h-1.8c0-0.8-0.3-1.4-0.8-1.9
		c-0.5-0.5-1.3-0.7-2.3-0.7c-0.9,0-1.6,0.2-2.1,0.6c-0.5,0.4-0.7,1-0.7,1.6c0,0.6,0.3,1.1,0.8,1.5c0.5,0.4,1.4,0.7,2.6,1
		c1.4,0.4,2.5,0.9,3.3,1.6c0.7,0.7,1.1,1.5,1.1,2.6c0,1.1-0.4,2-1.3,2.6c-0.9,0.7-2.1,1-3.5,1c-1.4,0-2.6-0.4-3.6-1.1
		s-1.6-1.7-1.5-3l0-0.1h1.8c0,0.9,0.3,1.5,1,2s1.4,0.7,2.4,0.7c0.9,0,1.7-0.2,2.2-0.6C74.8,420.9,75.1,420.4,75.1,419.7z"/>
	<path d="M81.7,410.5v2.4h1.9v1.4h-1.9v6.1c0,0.5,0.1,0.8,0.3,1s0.5,0.3,0.8,0.3c0.1,0,0.2,0,0.4,0c0.1,0,0.2-0.1,0.3-0.1l0.2,1.3
		c-0.1,0.1-0.3,0.2-0.6,0.3c-0.3,0.1-0.5,0.1-0.8,0.1c-0.7,0-1.3-0.2-1.8-0.7c-0.4-0.5-0.7-1.2-0.7-2.1v-6.1h-1.6V413h1.6v-2.4H81.7
		z"/>
	<path d="M87.9,423.1h-1.8v-1.9h1.8V423.1z"/>
	<path d="M106,421.3c-0.3,0.5-0.9,1-1.7,1.4s-1.8,0.6-3.1,0.6c-1.6,0-3-0.5-4-1.6c-1.1-1-1.6-2.4-1.6-4v-2.8c0-1.7,0.5-3,1.5-4
		c1-1,2.3-1.6,3.8-1.6c1.6,0,2.8,0.4,3.7,1.2c0.9,0.8,1.3,1.8,1.4,3l0,0.1h-1.8c-0.1-0.8-0.4-1.4-0.9-2c-0.5-0.5-1.3-0.8-2.4-0.8
		c-1,0-1.9,0.4-2.5,1.2c-0.6,0.8-1,1.8-1,3v2.8c0,1.2,0.4,2.2,1.1,3s1.6,1.2,2.7,1.2c0.8,0,1.4-0.1,1.9-0.3c0.5-0.2,0.8-0.4,1.1-0.7
		v-3.1h-3v-1.5h4.8V421.3z"/>
	<path d="M113.1,423.3c-1.4,0-2.5-0.5-3.4-1.4s-1.2-2.2-1.2-3.7v-0.4c0-1.4,0.4-2.6,1.3-3.6c0.9-1,1.9-1.4,3-1.4
		c1.4,0,2.4,0.4,3.1,1.2c0.7,0.8,1,1.9,1,3.3v1.2h-6.6l0,0c0,1,0.3,1.8,0.7,2.4c0.5,0.6,1.1,0.9,2,0.9c0.6,0,1.2-0.1,1.6-0.3
		s0.9-0.4,1.2-0.7l0.7,1.2c-0.4,0.4-0.8,0.7-1.4,0.9C114.6,423.2,113.9,423.3,113.1,423.3z M112.8,414.3c-0.6,0-1.1,0.3-1.6,0.8
		s-0.7,1.2-0.8,2l0,0h4.7v-0.2c0-0.7-0.2-1.3-0.6-1.8C114.1,414.5,113.6,414.3,112.8,414.3z"/>
	<path d="M118.6,418c0-1.5,0.4-2.7,1.2-3.7c0.8-1,1.9-1.5,3.3-1.5c1.4,0,2.5,0.5,3.3,1.5c0.8,1,1.2,2.2,1.2,3.7v0.2
		c0,1.5-0.4,2.7-1.2,3.7c-0.8,1-1.9,1.4-3.3,1.4c-1.4,0-2.5-0.5-3.3-1.4c-0.8-1-1.2-2.2-1.2-3.7V418z M120.4,418.2
		c0,1.1,0.2,2,0.7,2.7s1.1,1,2,1c0.9,0,1.5-0.3,2-1s0.7-1.6,0.7-2.7V418c0-1.1-0.2-1.9-0.7-2.6c-0.5-0.7-1.1-1.1-2-1.1
		c-0.9,0-1.5,0.4-2,1.1s-0.7,1.6-0.7,2.6V418.2z"/>
	<path d="M134.7,414.6l-0.9-0.1c-0.5,0-0.9,0.1-1.2,0.3c-0.3,0.2-0.6,0.6-0.8,1v7.2h-1.8V413h1.6l0.2,1.5c0.3-0.5,0.6-0.9,1.1-1.2
		c0.4-0.3,0.9-0.4,1.5-0.4c0.1,0,0.3,0,0.4,0c0.1,0,0.2,0,0.3,0.1L134.7,414.6z"/>
	<path d="M135.9,418.2c0-1.6,0.4-2.9,1.1-3.9c0.7-1,1.7-1.5,2.9-1.5c0.6,0,1.2,0.1,1.7,0.4s0.9,0.6,1.2,1.1l0.2-1.3h1.5v10.2
		c0,1.3-0.4,2.3-1.1,3c-0.8,0.7-1.8,1-3.3,1c-0.5,0-1-0.1-1.6-0.2c-0.6-0.1-1.1-0.3-1.5-0.5l0.5-1.4c0.3,0.2,0.7,0.3,1.2,0.5
		s0.9,0.2,1.4,0.2c0.9,0,1.6-0.2,2-0.6c0.4-0.4,0.6-1,0.6-1.9V422c-0.3,0.4-0.7,0.7-1.2,1c-0.5,0.2-1,0.3-1.6,0.3
		c-1.2,0-2.2-0.4-2.9-1.3c-0.7-0.9-1.1-2.1-1.1-3.5V418.2z M137.7,418.4c0,1,0.2,1.8,0.6,2.5c0.4,0.6,1.1,0.9,2,0.9
		c0.6,0,1-0.1,1.4-0.4c0.4-0.3,0.7-0.6,0.9-1.1v-4.7c-0.2-0.4-0.5-0.8-0.9-1c-0.4-0.3-0.8-0.4-1.4-0.4c-0.9,0-1.5,0.4-2,1.1
		c-0.4,0.7-0.7,1.7-0.7,2.8V418.4z"/>
	<path d="M151.4,423.3c-1.4,0-2.5-0.5-3.4-1.4s-1.2-2.2-1.2-3.7v-0.4c0-1.4,0.4-2.6,1.3-3.6c0.9-1,1.9-1.4,3-1.4
		c1.4,0,2.4,0.4,3.1,1.2c0.7,0.8,1,1.9,1,3.3v1.2h-6.6l0,0c0,1,0.3,1.8,0.7,2.4c0.5,0.6,1.1,0.9,2,0.9c0.6,0,1.2-0.1,1.6-0.3
		s0.9-0.4,1.2-0.7l0.7,1.2c-0.4,0.4-0.8,0.7-1.4,0.9C152.9,423.2,152.2,423.3,151.4,423.3z M151.1,414.3c-0.6,0-1.1,0.3-1.6,0.8
		s-0.7,1.2-0.8,2l0,0h4.7v-0.2c0-0.7-0.2-1.3-0.6-1.8C152.4,414.5,151.8,414.3,151.1,414.3z"/>
	<path d="M159,410.3l-1.5,3.2h-0.9l0.6-3.2v-1.8h1.8V410.3z"/>
	<path d="M166.1,420.4c0-0.4-0.2-0.7-0.5-1s-0.9-0.5-1.8-0.7c-1.2-0.3-2.2-0.6-2.8-1.1c-0.6-0.5-0.9-1.1-0.9-1.9
		c0-0.8,0.3-1.5,1-2.1c0.7-0.6,1.6-0.9,2.7-0.9c1.2,0,2.1,0.3,2.8,0.9c0.7,0.6,1,1.3,1,2.2l0,0.1H166c0-0.4-0.2-0.8-0.6-1.2
		c-0.4-0.4-0.9-0.5-1.5-0.5c-0.7,0-1.1,0.1-1.5,0.4c-0.3,0.3-0.5,0.6-0.5,1c0,0.4,0.1,0.7,0.4,0.9s0.9,0.4,1.7,0.6
		c1.3,0.3,2.2,0.6,2.9,1.1s0.9,1.1,0.9,1.9c0,0.9-0.4,1.6-1.1,2.2c-0.7,0.6-1.7,0.8-2.8,0.8c-1.3,0-2.3-0.3-3-1
		c-0.7-0.7-1.1-1.4-1.1-2.3l0-0.1h1.8c0,0.7,0.3,1.1,0.7,1.4s1,0.5,1.6,0.5c0.7,0,1.2-0.1,1.5-0.4
		C165.9,421.2,166.1,420.8,166.1,420.4z"/>
</g>
<g>
	<path d="M123.6,189.5c-0.3,0.5-0.9,1-1.7,1.4s-1.8,0.6-3.1,0.6c-1.6,0-3-0.5-4-1.6c-1.1-1-1.6-2.4-1.6-4v-2.8c0-1.7,0.5-3,1.5-4
		c1-1,2.3-1.6,3.8-1.6c1.6,0,2.8,0.4,3.7,1.2c0.9,0.8,1.3,1.8,1.4,3l0,0.1h-1.8c-0.1-0.8-0.4-1.4-0.9-2c-0.5-0.5-1.3-0.8-2.4-0.8
		c-1,0-1.9,0.4-2.5,1.2c-0.6,0.8-1,1.8-1,3v2.8c0,1.2,0.4,2.2,1.1,3s1.6,1.2,2.7,1.2c0.8,0,1.4-0.1,1.9-0.3c0.5-0.2,0.8-0.4,1.1-0.7
		V186h-3v-1.5h4.8V189.5z"/>
	<path d="M126,186.2c0-1.5,0.4-2.7,1.2-3.7c0.8-1,1.9-1.5,3.3-1.5c1.4,0,2.5,0.5,3.3,1.5c0.8,1,1.2,2.2,1.2,3.7v0.2
		c0,1.5-0.4,2.7-1.2,3.7c-0.8,1-1.9,1.4-3.3,1.4c-1.4,0-2.5-0.5-3.3-1.4c-0.8-1-1.2-2.2-1.2-3.7V186.2z M127.8,186.4
		c0,1.1,0.2,2,0.7,2.7s1.1,1,2,1c0.9,0,1.5-0.3,2-1s0.7-1.6,0.7-2.7v-0.2c0-1.1-0.2-1.9-0.7-2.6c-0.5-0.7-1.1-1.1-2-1.1
		c-0.9,0-1.5,0.4-2,1.1s-0.7,1.6-0.7,2.6V186.4z"/>
	<path d="M143.7,189.8c-0.3,0.5-0.7,1-1.2,1.3s-1.1,0.4-1.7,0.4c-1.1,0-2-0.4-2.6-1.1c-0.6-0.7-0.9-1.8-0.9-3.3v-6h1.8v6
		c0,1.1,0.2,1.8,0.5,2.2s0.8,0.6,1.5,0.6c0.7,0,1.2-0.1,1.6-0.4c0.4-0.3,0.7-0.6,1-1.1v-7.3h1.8v10.1h-1.7L143.7,189.8z"/>
	<path d="M151.3,187.6l0.3,1.3h0.1l2.5-7.6h2l-4.3,11.7c-0.3,0.7-0.6,1.3-1.1,1.8s-1.1,0.8-1.9,0.8c-0.1,0-0.3,0-0.6-0.1
		c-0.2,0-0.4-0.1-0.5-0.1l0.2-1.4c0,0,0.1,0,0.3,0s0.4,0,0.5,0c0.4,0,0.7-0.2,1-0.5s0.5-0.7,0.6-1.2l0.4-1.1l-3.8-9.9h2.1
		L151.3,187.6z"/>
	<path d="M163.9,191.3c-0.1-0.3-0.1-0.6-0.1-0.8c0-0.2-0.1-0.5-0.1-0.7c-0.3,0.5-0.8,0.9-1.3,1.2c-0.6,0.3-1.1,0.5-1.8,0.5
		c-1.1,0-1.9-0.3-2.4-0.8c-0.6-0.5-0.8-1.3-0.8-2.2c0-1,0.4-1.7,1.2-2.3s1.8-0.8,3.2-0.8h2v-1c0-0.6-0.2-1.1-0.5-1.4
		c-0.4-0.3-0.9-0.5-1.5-0.5c-0.6,0-1.1,0.2-1.4,0.5c-0.4,0.3-0.6,0.7-0.6,1.1h-1.8l0-0.1c0-0.7,0.3-1.4,1-2s1.7-0.9,2.8-0.9
		c1.1,0,2.1,0.3,2.8,0.9s1,1.4,1,2.5v4.9c0,0.4,0,0.7,0.1,1c0,0.3,0.1,0.7,0.2,1H163.9z M160.8,190c0.7,0,1.3-0.2,1.8-0.5
		c0.5-0.3,0.9-0.7,1-1.2v-1.6h-2.1c-0.7,0-1.3,0.2-1.8,0.6s-0.7,0.8-0.7,1.3c0,0.4,0.1,0.8,0.4,1.1C159.9,189.9,160.3,190,160.8,190
		z"/>
	<path d="M171.5,188.4l0.2,0.7h0.1l0.2-0.7l2.3-7.1h1.9l-3.7,10.1h-1.4l-3.8-10.1h1.9L171.5,188.4z"/>
	<path d="M181.8,191.5c-1.4,0-2.5-0.5-3.4-1.4s-1.2-2.2-1.2-3.7v-0.4c0-1.4,0.4-2.6,1.3-3.6c0.9-1,1.9-1.4,3-1.4
		c1.4,0,2.4,0.4,3.1,1.2c0.7,0.8,1,1.9,1,3.3v1.2h-6.6l0,0c0,1,0.3,1.8,0.7,2.4c0.5,0.6,1.1,0.9,2,0.9c0.6,0,1.2-0.1,1.6-0.3
		s0.9-0.4,1.2-0.7l0.7,1.2c-0.4,0.4-0.8,0.7-1.4,0.9C183.4,191.4,182.6,191.5,181.8,191.5z M181.5,182.5c-0.6,0-1.1,0.3-1.6,0.8
		s-0.7,1.2-0.8,2l0,0h4.7V185c0-0.7-0.2-1.3-0.6-1.8C182.8,182.7,182.3,182.5,181.5,182.5z"/>
</g>
<g>
	<path d="M610.9,185.4v5.9H609v-13.6h4.9c1.5,0,2.6,0.3,3.4,1s1.2,1.6,1.2,2.9c0,0.7-0.2,1.3-0.5,1.8s-0.9,0.9-1.6,1.2
		c0.7,0.2,1.3,0.6,1.6,1.2c0.3,0.5,0.5,1.2,0.5,2v1.3c0,0.4,0,0.8,0.1,1.1c0.1,0.3,0.3,0.6,0.5,0.8v0.2h-1.9
		c-0.2-0.2-0.4-0.5-0.5-0.9c-0.1-0.4-0.1-0.8-0.1-1.3v-1.2c0-0.7-0.2-1.3-0.6-1.8s-1-0.7-1.7-0.7H610.9z M610.9,184h2.9
		c1,0,1.8-0.2,2.2-0.6c0.5-0.4,0.7-1,0.7-1.8c0-0.8-0.2-1.4-0.7-1.8s-1.1-0.6-2.1-0.6h-3.1V184z"/>
	<path d="M623.4,178.6h-1.8v-1.9h1.8V178.6z M623.4,191.3h-1.8v-10.1h1.8V191.3z"/>
	<path d="M629.6,188.4l0.2,0.7h0.1l0.2-0.7l2.3-7.1h1.9l-3.7,10.1H629l-3.8-10.1h1.9L629.6,188.4z"/>
	<path d="M639.9,191.5c-1.4,0-2.5-0.5-3.4-1.4c-0.8-0.9-1.2-2.2-1.2-3.7v-0.4c0-1.4,0.4-2.6,1.3-3.6s1.9-1.4,3-1.4
		c1.4,0,2.4,0.4,3.1,1.2c0.7,0.8,1,1.9,1,3.3v1.2h-6.6l0,0c0,1,0.3,1.8,0.7,2.4s1.1,0.9,2,0.9c0.6,0,1.2-0.1,1.6-0.3
		s0.9-0.4,1.2-0.7l0.7,1.2c-0.4,0.4-0.8,0.7-1.4,0.9C641.5,191.4,640.7,191.5,639.9,191.5z M639.6,182.5c-0.6,0-1.1,0.3-1.6,0.8
		c-0.4,0.5-0.7,1.2-0.8,2l0,0h4.7V185c0-0.7-0.2-1.3-0.6-1.8S640.4,182.5,639.6,182.5z"/>
	<path d="M650.6,182.8l-0.9-0.1c-0.5,0-0.9,0.1-1.2,0.3c-0.3,0.2-0.6,0.6-0.8,1v7.2h-1.8v-10.1h1.6l0.2,1.5c0.3-0.5,0.6-0.9,1.1-1.2
		s0.9-0.4,1.5-0.4c0.1,0,0.3,0,0.4,0c0.1,0,0.2,0,0.3,0.1L650.6,182.8z"/>
	<path d="M616.4,210.8h-5.7l-1.3,3.5h-1.9l5.3-13.6h1.6l5.2,13.6h-1.9L616.4,210.8z M611.3,209.3h4.6l-2.2-6.2h-0.1L611.3,209.3z"/>
	<path d="M622.7,204.2l0.1,1.5c0.3-0.5,0.8-1,1.3-1.2c0.5-0.3,1.1-0.4,1.7-0.4c1.1,0,1.9,0.3,2.5,1c0.6,0.6,0.9,1.6,0.9,3v6.4h-1.8
		V208c0-0.9-0.2-1.5-0.5-1.9c-0.4-0.4-0.9-0.6-1.6-0.6c-0.5,0-1,0.1-1.4,0.4c-0.4,0.3-0.7,0.6-1,1v7.4h-1.8v-10.1H622.7z"/>
	<path d="M634.4,201.8v2.4h1.9v1.4h-1.9v6.1c0,0.5,0.1,0.8,0.3,1s0.5,0.3,0.8,0.3c0.1,0,0.2,0,0.4,0c0.1,0,0.2-0.1,0.3-0.1l0.2,1.3
		c-0.1,0.1-0.3,0.2-0.6,0.3c-0.3,0.1-0.5,0.1-0.8,0.1c-0.7,0-1.3-0.2-1.8-0.7c-0.4-0.5-0.7-1.2-0.7-2.1v-6.1h-1.6v-1.4h1.6v-2.4
		H634.4z"/>
	<path d="M638.1,209.2c0-1.5,0.4-2.7,1.2-3.7s1.9-1.5,3.3-1.5c1.4,0,2.5,0.5,3.3,1.5c0.8,1,1.2,2.2,1.2,3.7v0.2
		c0,1.5-0.4,2.7-1.2,3.7c-0.8,1-1.9,1.4-3.3,1.4c-1.4,0-2.5-0.5-3.3-1.4s-1.2-2.2-1.2-3.7V209.2z M640,209.4c0,1.1,0.2,2,0.7,2.7
		s1.1,1,2,1c0.9,0,1.5-0.3,2-1s0.7-1.6,0.7-2.7v-0.2c0-1.1-0.2-1.9-0.7-2.6c-0.5-0.7-1.1-1.1-2-1.1c-0.9,0-1.5,0.4-2,1.1
		s-0.7,1.6-0.7,2.6V209.4z"/>
	<path d="M651.5,201.6h-1.8v-1.9h1.8V201.6z M651.5,214.3h-1.8v-10.1h1.8V214.3z"/>
	<path d="M655.9,204.2l0.1,1.5c0.3-0.5,0.8-1,1.3-1.2c0.5-0.3,1.1-0.4,1.7-0.4c1.1,0,1.9,0.3,2.5,1c0.6,0.6,0.9,1.6,0.9,3v6.4h-1.8
		V208c0-0.9-0.2-1.5-0.5-1.9s-0.9-0.6-1.6-0.6c-0.5,0-1,0.1-1.4,0.4c-0.4,0.3-0.7,0.6-1,1v7.4h-1.8v-10.1H655.9z"/>
	<path d="M669.4,214.5c-1.4,0-2.5-0.5-3.4-1.4c-0.8-0.9-1.2-2.2-1.2-3.7v-0.4c0-1.4,0.4-2.6,1.3-3.6c0.9-1,1.9-1.4,3-1.4
		c1.4,0,2.4,0.4,3.1,1.2c0.7,0.8,1,1.9,1,3.3v1.2h-6.6l0,0c0,1,0.3,1.8,0.7,2.4s1.1,0.9,2,0.9c0.6,0,1.2-0.1,1.6-0.3
		s0.9-0.4,1.2-0.7l0.7,1.2c-0.4,0.4-0.8,0.7-1.4,0.9C670.9,214.4,670.2,214.5,669.4,214.5z M669.1,205.5c-0.6,0-1.1,0.3-1.6,0.8
		s-0.7,1.2-0.8,2l0,0h4.7V208c0-0.7-0.2-1.3-0.6-1.8C670.4,205.7,669.9,205.5,669.1,205.5z"/>
</g>
<g>
	<path d="M595,249.3v-13.6h4.4c1.4,0,2.5,0.3,3.3,0.9c0.8,0.6,1.2,1.5,1.2,2.8c0,0.6-0.2,1.1-0.6,1.6c-0.4,0.5-0.9,0.8-1.5,1.1
		c0.8,0.2,1.5,0.6,1.9,1.2s0.7,1.4,0.7,2.2c0,1.2-0.4,2.2-1.2,2.9c-0.8,0.7-1.9,1-3.3,1H595z M596.9,241.5h3c0.7,0,1.2-0.2,1.7-0.6
		c0.4-0.4,0.6-0.9,0.6-1.6c0-0.7-0.2-1.3-0.7-1.7c-0.5-0.4-1.1-0.5-2-0.5h-2.6V241.5z M596.9,243v4.9h3.2c0.8,0,1.5-0.2,2-0.6
		s0.7-1,0.7-1.8c0-0.8-0.2-1.4-0.6-1.9c-0.4-0.5-1-0.7-1.8-0.7H596.9z"/>
	<path d="M611.1,249.5c-1.4,0-2.5-0.5-3.4-1.4s-1.2-2.2-1.2-3.7v-0.4c0-1.4,0.4-2.6,1.3-3.6s1.9-1.4,3-1.4c1.4,0,2.4,0.4,3.1,1.2
		c0.7,0.8,1,1.9,1,3.3v1.2h-6.6l0,0c0,1,0.3,1.8,0.7,2.4c0.5,0.6,1.1,0.9,2,0.9c0.6,0,1.2-0.1,1.6-0.3s0.9-0.4,1.2-0.7l0.7,1.2
		c-0.4,0.4-0.8,0.7-1.4,0.9C612.7,249.4,612,249.5,611.1,249.5z M610.8,240.5c-0.6,0-1.1,0.3-1.6,0.8c-0.4,0.5-0.7,1.2-0.8,2l0,0
		h4.7V243c0-0.7-0.2-1.3-0.6-1.8S611.6,240.5,610.8,240.5z"/>
	<path d="M619,249.3h-1.8v-14.6h1.8V249.3z"/>
	<path d="M623.5,239.2l0.1,1.3c0.3-0.5,0.8-0.9,1.3-1.1c0.5-0.3,1.1-0.4,1.8-0.4c0.7,0,1.3,0.2,1.7,0.5c0.5,0.3,0.8,0.8,1.1,1.4
		c0.3-0.6,0.7-1,1.3-1.4c0.5-0.3,1.1-0.5,1.8-0.5c1,0,1.8,0.4,2.4,1.1s0.9,1.8,0.9,3.2v6.1h-1.8v-6.1c0-1-0.2-1.7-0.5-2.1
		c-0.3-0.4-0.9-0.6-1.5-0.6c-0.6,0-1.1,0.2-1.5,0.7c-0.4,0.4-0.6,1-0.7,1.7v0.1v6.4H628v-6.1c0-0.9-0.2-1.6-0.5-2.1
		c-0.4-0.4-0.9-0.7-1.5-0.7c-0.6,0-1,0.1-1.4,0.3c-0.4,0.2-0.6,0.6-0.8,1v7.5h-1.8v-10.1H623.5z"/>
	<path d="M638.2,244.2c0-1.5,0.4-2.7,1.2-3.7s1.9-1.5,3.3-1.5c1.4,0,2.5,0.5,3.3,1.4c0.8,1,1.2,2.2,1.2,3.7v0.2
		c0,1.5-0.4,2.7-1.2,3.7c-0.8,1-1.9,1.4-3.3,1.4c-1.4,0-2.5-0.5-3.3-1.4c-0.8-1-1.2-2.2-1.2-3.7V244.2z M640,244.4
		c0,1.1,0.2,2,0.7,2.7c0.5,0.7,1.1,1,2,1c0.9,0,1.5-0.3,2-1c0.5-0.7,0.7-1.6,0.7-2.7v-0.2c0-1.1-0.2-1.9-0.7-2.6
		c-0.5-0.7-1.1-1.1-2-1.1c-0.9,0-1.5,0.4-2,1.1c-0.5,0.7-0.7,1.6-0.7,2.6V244.4z"/>
	<path d="M651.1,239.2l0.1,1.5c0.3-0.5,0.8-1,1.3-1.2c0.5-0.3,1.1-0.4,1.7-0.4c1.1,0,1.9,0.3,2.5,1c0.6,0.6,0.9,1.6,0.9,3v6.4h-1.8
		V243c0-0.9-0.2-1.5-0.5-1.9c-0.4-0.4-0.9-0.6-1.6-0.6c-0.5,0-1,0.1-1.4,0.4c-0.4,0.3-0.7,0.6-1,1v7.4h-1.8v-10.1H651.1z"/>
	<path d="M662.8,236.8v2.4h1.9v1.4h-1.9v6.1c0,0.5,0.1,0.8,0.3,1s0.5,0.3,0.8,0.3c0.1,0,0.2,0,0.4,0c0.1,0,0.2-0.1,0.3-0.1l0.2,1.3
		c-0.1,0.1-0.3,0.2-0.6,0.3c-0.3,0.1-0.5,0.1-0.8,0.1c-0.7,0-1.3-0.2-1.8-0.7c-0.4-0.5-0.7-1.2-0.7-2.1v-6.1h-1.6v-1.4h1.6v-2.4
		H662.8z"/>
	<path d="M603.1,266h-6.2v4.9h7.2v1.5h-9v-13.6h8.9v1.5h-7.1v4.4h6.2V266z"/>
	<path d="M611.7,269.6c0-0.4-0.2-0.7-0.5-1s-0.9-0.5-1.8-0.7c-1.2-0.3-2.2-0.6-2.8-1.1c-0.6-0.5-0.9-1.1-0.9-1.9
		c0-0.8,0.3-1.5,1-2.1c0.7-0.6,1.6-0.9,2.7-0.9c1.2,0,2.1,0.3,2.8,0.9c0.7,0.6,1,1.3,1,2.2l0,0.1h-1.8c0-0.4-0.2-0.8-0.6-1.2
		c-0.4-0.4-0.9-0.5-1.5-0.5c-0.7,0-1.1,0.1-1.5,0.4c-0.3,0.3-0.5,0.6-0.5,1c0,0.4,0.1,0.7,0.4,0.9s0.9,0.4,1.7,0.6
		c1.3,0.3,2.2,0.6,2.9,1.1s0.9,1.1,0.9,1.9c0,0.9-0.4,1.6-1.1,2.2c-0.7,0.6-1.7,0.8-2.8,0.8c-1.3,0-2.3-0.3-3-1
		c-0.7-0.7-1.1-1.4-1.1-2.3l0-0.1h1.8c0,0.7,0.3,1.1,0.7,1.4s1,0.5,1.6,0.5c0.7,0,1.2-0.1,1.5-0.4
		C611.6,270.4,611.7,270.1,611.7,269.6z"/>
	<path d="M618.3,259.8v2.4h1.9v1.4h-1.9v6.1c0,0.5,0.1,0.8,0.3,1s0.5,0.3,0.8,0.3c0.1,0,0.2,0,0.4,0c0.1,0,0.2-0.1,0.3-0.1l0.2,1.3
		c-0.1,0.1-0.3,0.2-0.6,0.3c-0.3,0.1-0.5,0.1-0.8,0.1c-0.7,0-1.3-0.2-1.8-0.7c-0.4-0.5-0.7-1.2-0.7-2.1v-6.1h-1.6v-1.4h1.6v-2.4
		H618.3z"/>
	<path d="M628.7,272.3c-0.1-0.3-0.1-0.6-0.1-0.8c0-0.2-0.1-0.5-0.1-0.7c-0.3,0.5-0.8,0.9-1.3,1.2c-0.6,0.3-1.1,0.5-1.8,0.5
		c-1.1,0-1.9-0.3-2.4-0.8c-0.6-0.5-0.8-1.3-0.8-2.2c0-1,0.4-1.7,1.2-2.3c0.8-0.5,1.8-0.8,3.2-0.8h2v-1c0-0.6-0.2-1.1-0.5-1.4
		c-0.4-0.3-0.9-0.5-1.5-0.5c-0.6,0-1.1,0.2-1.4,0.5c-0.4,0.3-0.6,0.7-0.6,1.1h-1.8l0-0.1c0-0.7,0.3-1.4,1-2c0.7-0.6,1.7-0.9,2.8-0.9
		c1.1,0,2.1,0.3,2.8,0.9s1,1.4,1,2.5v4.9c0,0.4,0,0.7,0.1,1c0,0.3,0.1,0.7,0.2,1H628.7z M625.7,271c0.7,0,1.3-0.2,1.8-0.5
		c0.5-0.3,0.9-0.7,1-1.2v-1.6h-2.1c-0.7,0-1.3,0.2-1.8,0.6c-0.4,0.4-0.7,0.8-0.7,1.3c0,0.4,0.1,0.8,0.4,1.1
		C624.7,270.8,625.1,271,625.7,271z"/>
	<path d="M635.5,259.8v2.4h1.9v1.4h-1.9v6.1c0,0.5,0.1,0.8,0.3,1s0.5,0.3,0.8,0.3c0.1,0,0.2,0,0.4,0c0.1,0,0.2-0.1,0.3-0.1l0.2,1.3
		c-0.1,0.1-0.3,0.2-0.6,0.3c-0.3,0.1-0.5,0.1-0.8,0.1c-0.7,0-1.3-0.2-1.8-0.7c-0.4-0.5-0.7-1.2-0.7-2.1v-6.1H632v-1.4h1.6v-2.4
		H635.5z"/>
	<path d="M643.9,272.5c-1.4,0-2.5-0.5-3.4-1.4c-0.8-0.9-1.2-2.2-1.2-3.7v-0.4c0-1.4,0.4-2.6,1.3-3.6c0.9-1,1.9-1.4,3-1.4
		c1.4,0,2.4,0.4,3.1,1.2c0.7,0.8,1,1.9,1,3.3v1.2h-6.6l0,0c0,1,0.3,1.8,0.7,2.4s1.1,0.9,2,0.9c0.6,0,1.2-0.1,1.6-0.3
		s0.9-0.4,1.2-0.7l0.7,1.2c-0.4,0.4-0.8,0.7-1.4,0.9C645.4,272.4,644.7,272.5,643.9,272.5z M643.6,263.5c-0.6,0-1.1,0.3-1.6,0.8
		s-0.7,1.2-0.8,2l0,0h4.7V266c0-0.7-0.2-1.3-0.6-1.8C644.9,263.7,644.3,263.5,643.6,263.5z"/>
</g>
<g>
	<path d="M555.1,386.9c-0.3,0.5-0.9,1-1.7,1.4s-1.8,0.6-3.1,0.6c-1.6,0-3-0.5-4-1.6c-1.1-1-1.6-2.4-1.6-4v-2.8c0-1.7,0.5-3,1.5-4
		c1-1,2.3-1.6,3.8-1.6c1.6,0,2.8,0.4,3.7,1.2c0.9,0.8,1.3,1.8,1.4,3l0,0.1h-1.8c-0.1-0.8-0.4-1.4-0.9-2c-0.5-0.5-1.3-0.8-2.4-0.8
		c-1,0-1.9,0.4-2.5,1.2c-0.6,0.8-1,1.8-1,3v2.8c0,1.2,0.4,2.2,1.1,3c0.7,0.8,1.6,1.2,2.7,1.2c0.8,0,1.4-0.1,1.9-0.3
		c0.5-0.2,0.8-0.4,1.1-0.7v-3.1h-3v-1.4h4.8V386.9z"/>
	<path d="M562.7,380.3l-0.9-0.1c-0.5,0-0.9,0.1-1.2,0.3s-0.6,0.6-0.8,1v7.2h-1.8v-10.1h1.6l0.2,1.5c0.3-0.5,0.6-0.9,1.1-1.2
		c0.4-0.3,0.9-0.4,1.5-0.4c0.1,0,0.3,0,0.4,0s0.2,0,0.3,0.1L562.7,380.3z"/>
	<path d="M570.7,388.7c-0.1-0.3-0.1-0.6-0.1-0.8c0-0.2-0.1-0.5-0.1-0.7c-0.3,0.5-0.8,0.9-1.3,1.2c-0.6,0.3-1.1,0.5-1.8,0.5
		c-1.1,0-1.9-0.3-2.4-0.8s-0.8-1.3-0.8-2.2c0-1,0.4-1.7,1.2-2.3c0.8-0.5,1.8-0.8,3.2-0.8h2v-1c0-0.6-0.2-1.1-0.5-1.4
		c-0.4-0.3-0.9-0.5-1.5-0.5c-0.6,0-1.1,0.2-1.4,0.5s-0.6,0.7-0.6,1.1h-1.8l0-0.1c0-0.7,0.3-1.4,1-2s1.7-0.9,2.8-0.9
		c1.1,0,2.1,0.3,2.8,0.9s1,1.4,1,2.5v4.9c0,0.4,0,0.7,0.1,1c0,0.3,0.1,0.7,0.2,1H570.7z M567.7,387.4c0.7,0,1.3-0.2,1.8-0.5
		s0.9-0.7,1-1.2v-1.6h-2.1c-0.7,0-1.3,0.2-1.8,0.6s-0.7,0.8-0.7,1.3c0,0.4,0.1,0.8,0.4,1.1C566.7,387.3,567.1,387.4,567.7,387.4z"/>
	<path d="M576.7,378.6l0.1,1.5c0.3-0.5,0.8-1,1.3-1.2c0.5-0.3,1.1-0.4,1.7-0.4c1.1,0,1.9,0.3,2.5,1c0.6,0.6,0.9,1.6,0.9,3v6.4h-1.8
		v-6.4c0-0.9-0.2-1.5-0.5-1.9c-0.4-0.4-0.9-0.6-1.6-0.6c-0.5,0-1,0.1-1.4,0.4c-0.4,0.3-0.7,0.6-1,1v7.4H575v-10.1H576.7z"/>
	<path d="M585.5,383.9c0-1.6,0.3-2.9,1-3.9s1.7-1.5,2.9-1.5c0.6,0,1.1,0.1,1.6,0.3c0.5,0.2,0.8,0.5,1.2,1v-5.6h1.8v14.6h-1.5
		l-0.2-1.2c-0.3,0.5-0.7,0.8-1.2,1.1c-0.5,0.2-1,0.4-1.7,0.4c-1.2,0-2.2-0.4-2.9-1.3s-1-2.1-1-3.5V383.9z M587.3,384.1
		c0,1,0.2,1.8,0.6,2.5c0.4,0.6,1.1,0.9,1.9,0.9c0.5,0,1-0.1,1.4-0.4c0.4-0.2,0.7-0.6,0.9-1v-4.7c-0.2-0.4-0.5-0.8-0.9-1
		c-0.4-0.2-0.8-0.4-1.4-0.4c-0.9,0-1.5,0.4-2,1.1c-0.4,0.7-0.6,1.7-0.6,2.8V384.1z"/>
	<path d="M610,382.4h-6.2v4.9h7.2v1.4h-9v-13.6h8.9v1.4h-7.1v4.4h6.2V382.4z"/>
	<path d="M615.2,376.2v2.4h1.9v1.4h-1.9v6.1c0,0.5,0.1,0.8,0.3,1s0.5,0.3,0.8,0.3c0.1,0,0.2,0,0.4,0c0.1,0,0.2-0.1,0.3-0.1l0.2,1.3
		c-0.1,0.1-0.3,0.2-0.6,0.3c-0.3,0.1-0.5,0.1-0.8,0.1c-0.7,0-1.3-0.2-1.8-0.7c-0.4-0.5-0.7-1.2-0.7-2.1V380h-1.6v-1.4h1.6v-2.4
		H615.2z"/>
	<path d="M625.6,388.7c-0.1-0.3-0.1-0.6-0.1-0.8c0-0.2-0.1-0.5-0.1-0.7c-0.3,0.5-0.8,0.9-1.3,1.2c-0.6,0.3-1.1,0.5-1.8,0.5
		c-1.1,0-1.9-0.3-2.4-0.8s-0.8-1.3-0.8-2.2c0-1,0.4-1.7,1.2-2.3c0.8-0.5,1.8-0.8,3.2-0.8h2v-1c0-0.6-0.2-1.1-0.5-1.4
		c-0.4-0.3-0.9-0.5-1.5-0.5c-0.6,0-1.1,0.2-1.4,0.5s-0.6,0.7-0.6,1.1h-1.8l0-0.1c0-0.7,0.3-1.4,1-2c0.7-0.6,1.7-0.9,2.8-0.9
		c1.1,0,2.1,0.3,2.8,0.9s1,1.4,1,2.5v4.9c0,0.4,0,0.7,0.1,1c0,0.3,0.1,0.7,0.2,1H625.6z M622.5,387.4c0.7,0,1.3-0.2,1.8-0.5
		s0.9-0.7,1-1.2v-1.6h-2.1c-0.7,0-1.3,0.2-1.8,0.6c-0.4,0.4-0.7,0.8-0.7,1.3c0,0.4,0.1,0.8,0.4,1.1
		C621.6,387.3,622,387.4,622.5,387.4z"/>
	<path d="M631.6,378.6l0.1,1.5c0.3-0.5,0.8-1,1.3-1.2c0.5-0.3,1.1-0.4,1.7-0.4c1.1,0,1.9,0.3,2.5,1c0.6,0.6,0.9,1.6,0.9,3v6.4h-1.8
		v-6.4c0-0.9-0.2-1.5-0.5-1.9c-0.4-0.4-0.9-0.6-1.6-0.6c-0.5,0-1,0.1-1.4,0.4c-0.4,0.3-0.7,0.6-1,1v7.4h-1.8v-10.1H631.6z"/>
	<path d="M640.4,383.9c0-1.6,0.4-2.9,1.1-3.9s1.7-1.5,2.9-1.5c0.6,0,1.2,0.1,1.7,0.4s0.9,0.6,1.2,1.1l0.2-1.3h1.5v10.2
		c0,1.3-0.4,2.3-1.1,3s-1.8,1-3.3,1c-0.5,0-1-0.1-1.6-0.2s-1.1-0.3-1.5-0.5l0.5-1.4c0.3,0.2,0.7,0.3,1.2,0.5s0.9,0.2,1.4,0.2
		c0.9,0,1.6-0.2,2-0.6c0.4-0.4,0.6-1,0.6-1.9v-1.1c-0.3,0.4-0.7,0.7-1.2,1c-0.5,0.2-1,0.3-1.6,0.3c-1.2,0-2.2-0.4-2.9-1.3
		c-0.7-0.9-1.1-2.1-1.1-3.5V383.9z M642.2,384.1c0,1,0.2,1.8,0.6,2.5c0.4,0.6,1.1,0.9,2,0.9c0.6,0,1-0.1,1.4-0.4
		c0.4-0.3,0.7-0.6,0.9-1.1v-4.7c-0.2-0.4-0.5-0.8-0.9-1c-0.4-0.3-0.8-0.4-1.4-0.4c-0.9,0-1.5,0.4-2,1.1c-0.4,0.7-0.7,1.7-0.7,2.8
		V384.1z"/>
	<path d="M544.1,408.1c0-0.8,0.2-1.4,0.7-2c0.4-0.6,1.1-1.1,2-1.7c-0.5-0.6-0.8-1.2-1.1-1.7c-0.2-0.5-0.4-1-0.4-1.5
		c0-1.1,0.3-1.9,0.9-2.4c0.6-0.6,1.4-0.9,2.5-0.9c1,0,1.8,0.3,2.4,0.9c0.6,0.6,0.9,1.2,0.9,2c0,0.6-0.2,1.1-0.5,1.6
		c-0.3,0.4-0.8,0.9-1.5,1.4l-1,0.7l3.2,3.8c0.3-0.4,0.5-0.9,0.6-1.3s0.2-1,0.2-1.6h1.6c0,0.8-0.1,1.6-0.4,2.3
		c-0.2,0.7-0.6,1.3-1.1,1.9l1.7,2.1l0,0h-2.1l-0.8-1c-0.5,0.4-1.1,0.7-1.7,0.9s-1.2,0.3-1.9,0.3c-1.4,0-2.4-0.4-3.2-1.1
		C544.5,410.1,544.1,409.2,544.1,408.1z M548.6,410.5c0.4,0,0.9-0.1,1.3-0.2s0.8-0.4,1.2-0.7l-3.4-4.1l-0.4,0.3
		c-0.6,0.4-0.9,0.8-1.1,1.2s-0.3,0.7-0.3,1c0,0.7,0.2,1.3,0.7,1.7C547.1,410.3,547.7,410.5,548.6,410.5z M547.2,401.2
		c0,0.3,0.1,0.7,0.3,1s0.4,0.8,0.8,1.2l1.3-0.9c0.4-0.2,0.6-0.5,0.7-0.8c0.1-0.3,0.2-0.6,0.2-0.9c0-0.4-0.2-0.7-0.5-1
		c-0.3-0.3-0.7-0.4-1.2-0.4c-0.5,0-0.9,0.2-1.2,0.5S547.2,400.7,547.2,401.2z"/>
	<path d="M564.3,398.1l4.3,11.1h0.1l4.3-11.1h2.4v13.6h-1.8v-5.4l0.2-5.5l0,0l-4.4,10.9H568l-4.4-10.9l0,0l0.2,5.5v5.4h-1.8v-13.6
		H564.3z"/>
	<path d="M580.8,399.2v2.4h1.9v1.4h-1.9v6.1c0,0.5,0.1,0.8,0.3,1s0.5,0.3,0.8,0.3c0.1,0,0.2,0,0.4,0c0.1,0,0.2-0.1,0.3-0.1l0.2,1.3
		c-0.1,0.1-0.3,0.2-0.6,0.3c-0.3,0.1-0.5,0.1-0.8,0.1c-0.7,0-1.3-0.2-1.8-0.7c-0.4-0.5-0.7-1.2-0.7-2.1V403h-1.6v-1.4h1.6v-2.4
		H580.8z"/>
	<path d="M600.4,406.1c0,0.9-0.2,1.7-0.5,2.5c-0.3,0.8-0.7,1.4-1.3,1.9l2.3,2.2l-1.3,1.2l-2.6-2.4c-0.3,0.1-0.7,0.3-1.1,0.3
		c-0.4,0.1-0.8,0.1-1.2,0.1c-1.6,0-2.9-0.5-3.9-1.6s-1.5-2.5-1.5-4.1v-2.4c0-1.7,0.5-3,1.5-4.1c1-1.1,2.3-1.7,3.9-1.7
		c1.6,0,3,0.6,4,1.7s1.5,2.5,1.5,4.1V406.1z M598.6,403.7c0-1.2-0.3-2.3-1-3.1c-0.7-0.8-1.6-1.2-2.7-1.2c-1.1,0-1.9,0.4-2.6,1.2
		c-0.6,0.8-1,1.8-1,3.1v2.4c0,1.3,0.3,2.3,1,3.1c0.6,0.8,1.5,1.2,2.6,1.2c1.1,0,2-0.4,2.7-1.2c0.7-0.8,1-1.8,1-3.1V403.7z"/>
	<path d="M609.3,410.2c-0.3,0.5-0.7,1-1.2,1.3s-1.1,0.4-1.7,0.4c-1.1,0-2-0.4-2.6-1.1c-0.6-0.7-0.9-1.8-0.9-3.3v-6h1.8v6
		c0,1.1,0.2,1.8,0.5,2.2s0.8,0.6,1.5,0.6c0.7,0,1.2-0.1,1.6-0.4c0.4-0.3,0.7-0.6,1-1.1v-7.3h1.8v10.1h-1.7L609.3,410.2z"/>
	<path d="M619.9,411.7c-0.1-0.3-0.1-0.6-0.1-0.8c0-0.2-0.1-0.5-0.1-0.7c-0.3,0.5-0.8,0.9-1.3,1.2c-0.6,0.3-1.1,0.5-1.8,0.5
		c-1.1,0-1.9-0.3-2.4-0.8c-0.6-0.5-0.8-1.3-0.8-2.2c0-1,0.4-1.7,1.2-2.3s1.8-0.8,3.2-0.8h2v-1c0-0.6-0.2-1.1-0.5-1.4
		c-0.4-0.3-0.9-0.5-1.5-0.5c-0.6,0-1.1,0.2-1.4,0.5c-0.4,0.3-0.6,0.7-0.6,1.1h-1.8l0-0.1c0-0.7,0.3-1.4,1-2s1.7-0.9,2.8-0.9
		c1.1,0,2.1,0.3,2.8,0.9s1,1.4,1,2.5v4.9c0,0.4,0,0.7,0.1,1c0,0.3,0.1,0.7,0.2,1H619.9z M616.9,410.4c0.7,0,1.3-0.2,1.8-0.5
		c0.5-0.3,0.9-0.7,1-1.2V407h-2.1c-0.7,0-1.3,0.2-1.8,0.6s-0.7,0.8-0.7,1.3c0,0.4,0.1,0.8,0.4,1.1
		C615.9,410.2,616.3,410.4,616.9,410.4z"/>
	<path d="M639.7,406.1c0,0.9-0.2,1.7-0.5,2.5s-0.7,1.4-1.3,1.9l2.3,2.2l-1.3,1.2l-2.6-2.4c-0.3,0.1-0.7,0.3-1.1,0.3
		c-0.4,0.1-0.8,0.1-1.2,0.1c-1.6,0-2.9-0.5-3.9-1.6c-1-1.1-1.5-2.5-1.5-4.1v-2.4c0-1.7,0.5-3,1.5-4.1c1-1.1,2.3-1.7,3.9-1.7
		c1.6,0,3,0.6,4,1.7s1.5,2.5,1.5,4.1V406.1z M637.8,403.7c0-1.2-0.3-2.3-1-3.1c-0.7-0.8-1.6-1.2-2.7-1.2c-1.1,0-1.9,0.4-2.6,1.2
		c-0.6,0.8-1,1.8-1,3.1v2.4c0,1.3,0.3,2.3,1,3.1c0.6,0.8,1.5,1.2,2.6,1.2c1.1,0,2-0.4,2.7-1.2c0.7-0.8,1-1.8,1-3.1V403.7z"/>
	<path d="M648.5,410.2c-0.3,0.5-0.7,1-1.2,1.3s-1.1,0.4-1.7,0.4c-1.1,0-2-0.4-2.6-1.1c-0.6-0.7-0.9-1.8-0.9-3.3v-6h1.8v6
		c0,1.1,0.2,1.8,0.5,2.2c0.3,0.4,0.8,0.6,1.5,0.6c0.7,0,1.2-0.1,1.6-0.4c0.4-0.3,0.8-0.6,1-1.1v-7.3h1.8v10.1h-1.7L648.5,410.2z"/>
	<path d="M659.2,411.7c-0.1-0.3-0.1-0.6-0.1-0.8c0-0.2-0.1-0.5-0.1-0.7c-0.3,0.5-0.8,0.9-1.3,1.2s-1.1,0.5-1.8,0.5
		c-1.1,0-1.9-0.3-2.4-0.8c-0.6-0.5-0.8-1.3-0.8-2.2c0-1,0.4-1.7,1.2-2.3c0.8-0.5,1.8-0.8,3.2-0.8h2v-1c0-0.6-0.2-1.1-0.5-1.4
		c-0.4-0.3-0.9-0.5-1.5-0.5c-0.6,0-1.1,0.2-1.4,0.5c-0.4,0.3-0.6,0.7-0.6,1.1h-1.8l0-0.1c0-0.7,0.3-1.4,1-2c0.7-0.6,1.7-0.9,2.8-0.9
		c1.1,0,2.1,0.3,2.8,0.9s1,1.4,1,2.5v4.9c0,0.4,0,0.7,0.1,1c0,0.3,0.1,0.7,0.2,1H659.2z M656.1,410.4c0.7,0,1.3-0.2,1.8-0.5
		c0.5-0.3,0.9-0.7,1-1.2V407h-2.1c-0.7,0-1.3,0.2-1.8,0.6c-0.4,0.4-0.7,0.8-0.7,1.3c0,0.4,0.1,0.8,0.4,1.1
		C655.2,410.2,655.6,410.4,656.1,410.4z"/>
</g>
<g>
	<path d="M50.6,467.3c-0.3,0.5-0.9,1-1.7,1.4s-1.8,0.6-3.1,0.6c-1.6,0-3-0.5-4-1.6c-1.1-1-1.6-2.4-1.6-4v-2.8c0-1.7,0.5-3,1.5-4
		s2.3-1.6,3.8-1.6c1.6,0,2.8,0.4,3.7,1.2c0.9,0.8,1.3,1.8,1.4,3l0,0.1h-1.8c-0.1-0.8-0.4-1.4-0.9-2c-0.5-0.5-1.3-0.8-2.4-0.8
		c-1,0-1.9,0.4-2.5,1.2c-0.6,0.8-1,1.8-1,3v2.8c0,1.2,0.4,2.2,1.1,3c0.7,0.8,1.6,1.2,2.7,1.2c0.8,0,1.4-0.1,1.9-0.3
		c0.5-0.2,0.8-0.4,1.1-0.7v-3.1h-3v-1.4h4.8V467.3z"/>
	<path d="M58.2,460.6l-0.9-0.1c-0.5,0-0.9,0.1-1.2,0.3c-0.3,0.2-0.6,0.6-0.8,1v7.2h-1.8V459h1.6l0.2,1.5c0.3-0.5,0.6-0.9,1.1-1.2
		c0.4-0.3,0.9-0.4,1.5-0.4c0.1,0,0.3,0,0.4,0c0.1,0,0.2,0,0.3,0.1L58.2,460.6z"/>
	<path d="M66.2,469.1c-0.1-0.3-0.1-0.6-0.1-0.8c0-0.2-0.1-0.5-0.1-0.7c-0.3,0.5-0.8,0.9-1.3,1.2c-0.6,0.3-1.1,0.5-1.8,0.5
		c-1.1,0-1.9-0.3-2.4-0.8s-0.8-1.3-0.8-2.2c0-1,0.4-1.7,1.2-2.3c0.8-0.5,1.8-0.8,3.2-0.8h2v-1c0-0.6-0.2-1.1-0.5-1.4
		c-0.4-0.3-0.9-0.5-1.5-0.5c-0.6,0-1.1,0.2-1.4,0.5c-0.4,0.3-0.6,0.7-0.6,1.1h-1.8l0-0.1c0-0.7,0.3-1.4,1-2s1.7-0.9,2.8-0.9
		c1.1,0,2.1,0.3,2.8,0.9s1,1.4,1,2.5v4.9c0,0.4,0,0.7,0.1,1c0,0.3,0.1,0.7,0.2,1H66.2z M63.1,467.7c0.7,0,1.3-0.2,1.8-0.5
		c0.5-0.3,0.9-0.7,1-1.2v-1.6h-2.1c-0.7,0-1.3,0.2-1.8,0.6s-0.7,0.8-0.7,1.3c0,0.4,0.1,0.8,0.4,1.1
		C62.2,467.6,62.6,467.7,63.1,467.7z"/>
	<path d="M72.2,459l0.1,1.5c0.3-0.5,0.8-1,1.3-1.2c0.5-0.3,1.1-0.4,1.7-0.4c1.1,0,1.9,0.3,2.5,1s0.9,1.6,0.9,3v6.4h-1.8v-6.4
		c0-0.9-0.2-1.5-0.5-1.9c-0.4-0.4-0.9-0.6-1.6-0.6c-0.5,0-1,0.1-1.4,0.4c-0.4,0.3-0.7,0.6-1,1v7.4h-1.8V459H72.2z"/>
	<path d="M81,464.2c0-1.6,0.3-2.9,1-3.9s1.7-1.5,2.9-1.5c0.6,0,1.1,0.1,1.6,0.3c0.5,0.2,0.8,0.5,1.2,1v-5.6h1.8v14.6H88l-0.2-1.2
		c-0.3,0.5-0.7,0.8-1.2,1.1c-0.5,0.2-1,0.4-1.7,0.4c-1.2,0-2.2-0.4-2.9-1.3s-1-2.1-1-3.5V464.2z M82.8,464.4c0,1,0.2,1.8,0.6,2.5
		c0.4,0.6,1.1,0.9,1.9,0.9c0.5,0,1-0.1,1.4-0.4c0.4-0.2,0.7-0.6,0.9-1v-4.7c-0.2-0.4-0.5-0.8-0.9-1c-0.4-0.2-0.8-0.4-1.4-0.4
		c-0.9,0-1.5,0.4-2,1.1c-0.4,0.7-0.6,1.7-0.6,2.8V464.4z"/>
	<path d="M104.8,465.6h-5.7l-1.3,3.5h-1.9l5.3-13.6h1.6l5.2,13.6h-1.9L104.8,465.6z M99.6,464h4.6l-2.2-6.2h-0.1L99.6,464z"/>
	<path d="M111.1,459l0.1,1.5c0.3-0.5,0.8-1,1.3-1.2c0.5-0.3,1.1-0.4,1.7-0.4c1.1,0,1.9,0.3,2.5,1s0.9,1.6,0.9,3v6.4h-1.8v-6.4
		c0-0.9-0.2-1.5-0.5-1.9c-0.4-0.4-0.9-0.6-1.6-0.6c-0.5,0-1,0.1-1.4,0.4c-0.4,0.3-0.7,0.6-1,1v7.4h-1.8V459H111.1z"/>
	<path d="M126.2,466.4c0-0.4-0.2-0.7-0.5-1c-0.3-0.3-0.9-0.5-1.8-0.7c-1.2-0.3-2.2-0.6-2.8-1.1s-0.9-1.1-0.9-1.9
		c0-0.8,0.3-1.5,1-2.1c0.7-0.6,1.6-0.9,2.7-0.9c1.2,0,2.1,0.3,2.8,0.9c0.7,0.6,1,1.3,1,2.2l0,0.1h-1.8c0-0.4-0.2-0.8-0.6-1.2
		c-0.4-0.4-0.9-0.5-1.5-0.5c-0.7,0-1.1,0.1-1.5,0.4c-0.3,0.3-0.5,0.6-0.5,1c0,0.4,0.1,0.7,0.4,0.9c0.3,0.2,0.9,0.4,1.7,0.6
		c1.3,0.3,2.2,0.6,2.9,1.1s0.9,1.1,0.9,1.9c0,0.9-0.4,1.6-1.1,2.2c-0.7,0.6-1.7,0.8-2.8,0.8c-1.3,0-2.3-0.3-3-1
		c-0.7-0.7-1.1-1.4-1.1-2.3l0-0.1h1.8c0,0.7,0.3,1.1,0.7,1.4c0.5,0.3,1,0.5,1.6,0.5c0.7,0,1.2-0.1,1.5-0.4
		C126,467.2,126.2,466.8,126.2,466.4z"/>
	<path d="M134.6,469.3c-1.4,0-2.5-0.5-3.4-1.4c-0.8-0.9-1.2-2.2-1.2-3.7v-0.4c0-1.4,0.4-2.6,1.3-3.6s1.9-1.4,3-1.4
		c1.4,0,2.4,0.4,3.1,1.2c0.7,0.8,1,1.9,1,3.3v1.2h-6.6l0,0c0,1,0.3,1.8,0.7,2.4c0.5,0.6,1.1,0.9,2,0.9c0.6,0,1.2-0.1,1.6-0.3
		s0.9-0.4,1.2-0.7l0.7,1.2c-0.4,0.4-0.8,0.7-1.4,0.9C136.1,469.2,135.4,469.3,134.6,469.3z M134.3,460.2c-0.6,0-1.1,0.3-1.6,0.8
		s-0.7,1.2-0.8,2l0,0h4.7v-0.2c0-0.7-0.2-1.3-0.6-1.8C135.6,460.5,135,460.2,134.3,460.2z"/>
	<path d="M145.6,469.1v-13.6h4.4c1.4,0,2.5,0.3,3.3,0.9c0.8,0.6,1.2,1.5,1.2,2.8c0,0.6-0.2,1.1-0.6,1.6c-0.4,0.5-0.9,0.8-1.5,1.1
		c0.8,0.2,1.5,0.6,1.9,1.2s0.7,1.4,0.7,2.2c0,1.2-0.4,2.2-1.2,2.9c-0.8,0.7-1.9,1-3.3,1H145.6z M147.4,461.3h3
		c0.7,0,1.2-0.2,1.7-0.6c0.4-0.4,0.6-0.9,0.6-1.6c0-0.7-0.2-1.3-0.7-1.7c-0.5-0.4-1.1-0.5-2-0.5h-2.6V461.3z M147.4,462.7v4.9h3.2
		c0.8,0,1.5-0.2,2-0.6s0.7-1,0.7-1.8c0-0.8-0.2-1.4-0.6-1.9s-1-0.7-1.8-0.7H147.4z"/>
	<path d="M161.7,469.3c-1.4,0-2.5-0.5-3.4-1.4c-0.8-0.9-1.2-2.2-1.2-3.7v-0.4c0-1.4,0.4-2.6,1.3-3.6s1.9-1.4,3-1.4
		c1.4,0,2.4,0.4,3.1,1.2c0.7,0.8,1,1.9,1,3.3v1.2H159l0,0c0,1,0.3,1.8,0.7,2.4c0.5,0.6,1.1,0.9,2,0.9c0.6,0,1.2-0.1,1.6-0.3
		s0.9-0.4,1.2-0.7l0.7,1.2c-0.4,0.4-0.8,0.7-1.4,0.9C163.3,469.2,162.5,469.3,161.7,469.3z M161.4,460.2c-0.6,0-1.1,0.3-1.6,0.8
		s-0.7,1.2-0.8,2l0,0h4.7v-0.2c0-0.7-0.2-1.3-0.6-1.8C162.8,460.5,162.2,460.2,161.4,460.2z"/>
	<path d="M173.9,469.1c-0.1-0.3-0.1-0.6-0.1-0.8c0-0.2-0.1-0.5-0.1-0.7c-0.3,0.5-0.8,0.9-1.3,1.2c-0.6,0.3-1.1,0.5-1.8,0.5
		c-1.1,0-1.9-0.3-2.4-0.8s-0.8-1.3-0.8-2.2c0-1,0.4-1.7,1.2-2.3c0.8-0.5,1.8-0.8,3.2-0.8h2v-1c0-0.6-0.2-1.1-0.5-1.4
		c-0.4-0.3-0.9-0.5-1.5-0.5c-0.6,0-1.1,0.2-1.4,0.5c-0.4,0.3-0.6,0.7-0.6,1.1h-1.8l0-0.1c0-0.7,0.3-1.4,1-2s1.7-0.9,2.8-0.9
		c1.1,0,2.1,0.3,2.8,0.9s1,1.4,1,2.5v4.9c0,0.4,0,0.7,0.1,1c0,0.3,0.1,0.7,0.2,1H173.9z M170.8,467.7c0.7,0,1.3-0.2,1.8-0.5
		c0.5-0.3,0.9-0.7,1-1.2v-1.6h-2.1c-0.7,0-1.3,0.2-1.8,0.6s-0.7,0.8-0.7,1.3c0,0.4,0.1,0.8,0.4,1.1
		C169.8,467.6,170.2,467.7,170.8,467.7z"/>
	<path d="M182.3,467.8c0.6,0,1.1-0.2,1.6-0.6c0.5-0.4,0.7-0.8,0.7-1.4h1.7l0,0.1c0,0.9-0.4,1.6-1.2,2.3s-1.7,1-2.8,1
		c-1.5,0-2.6-0.5-3.4-1.4c-0.8-1-1.2-2.2-1.2-3.6v-0.4c0-1.4,0.4-2.6,1.2-3.6c0.8-1,1.9-1.4,3.4-1.4c1.2,0,2.2,0.3,2.9,1
		c0.8,0.7,1.1,1.6,1.1,2.6l0,0.1h-1.7c0-0.6-0.2-1.1-0.7-1.6c-0.4-0.4-1-0.7-1.7-0.7c-1,0-1.7,0.3-2.1,1c-0.4,0.7-0.6,1.5-0.6,2.6
		v0.4c0,1,0.2,1.9,0.6,2.6C180.6,467.5,181.3,467.8,182.3,467.8z"/>
	<path d="M190.2,460.3c0.3-0.5,0.8-0.9,1.3-1.1c0.5-0.3,1.1-0.4,1.7-0.4c1.1,0,1.9,0.3,2.5,1c0.6,0.6,0.9,1.6,0.9,3v6.3h-1.8v-6.4
		c0-0.8-0.2-1.5-0.5-1.9c-0.4-0.4-0.9-0.6-1.6-0.6c-0.5,0-1,0.1-1.4,0.4c-0.4,0.2-0.8,0.6-1,1v7.5h-1.8v-14.6h1.8V460.3z"/>
</g>
<g>
	<path d="M43.1,511.6h-5.7l-1.3,3.5h-1.9l5.3-13.6h1.6l5.2,13.6h-1.9L43.1,511.6z M37.9,510h4.6l-2.2-6.2h-0.1L37.9,510z"/>
	<path d="M49.8,502.4h-1.8v-1.9h1.8V502.4z M49.8,515.1h-1.8V505h1.8V515.1z"/>
	<path d="M57.4,506.6l-0.9-0.1c-0.5,0-0.9,0.1-1.2,0.3c-0.3,0.2-0.6,0.6-0.8,1v7.2h-1.8V505h1.6l0.2,1.5c0.3-0.5,0.6-0.9,1.1-1.2
		c0.4-0.3,0.9-0.4,1.5-0.4c0.1,0,0.3,0,0.4,0c0.1,0,0.2,0,0.3,0.1L57.4,506.6z"/>
	<path d="M67.8,510.4c0,1.5-0.3,2.6-1,3.5c-0.7,0.9-1.7,1.3-2.9,1.3c-0.6,0-1.2-0.1-1.6-0.3c-0.5-0.2-0.9-0.5-1.2-0.9v4.9h-1.8v-14
		h1.4l0.3,1.3c0.3-0.5,0.7-0.9,1.2-1.1s1.1-0.4,1.7-0.4c1.3,0,2.2,0.5,2.9,1.5c0.7,1,1,2.3,1,3.9V510.4z M65.9,510.2
		c0-1.1-0.2-2.1-0.7-2.8s-1.1-1.1-2-1.1c-0.5,0-1,0.1-1.4,0.4c-0.4,0.2-0.7,0.6-0.9,1v4.9c0.2,0.4,0.5,0.7,0.9,1
		c0.4,0.2,0.8,0.4,1.4,0.4c0.9,0,1.5-0.3,2-1c0.4-0.6,0.7-1.5,0.7-2.5V510.2z"/>
	<path d="M69.6,509.9c0-1.5,0.4-2.7,1.2-3.7c0.8-1,1.9-1.5,3.3-1.5c1.4,0,2.5,0.5,3.3,1.4c0.8,1,1.2,2.2,1.2,3.7v0.2
		c0,1.5-0.4,2.7-1.2,3.7s-1.9,1.4-3.3,1.4c-1.4,0-2.5-0.5-3.3-1.4c-0.8-1-1.2-2.2-1.2-3.7V509.9z M71.5,510.1c0,1.1,0.2,2,0.7,2.7
		s1.1,1,2,1c0.9,0,1.5-0.3,2-1s0.7-1.6,0.7-2.7v-0.2c0-1.1-0.2-1.9-0.7-2.6c-0.5-0.7-1.1-1.1-2-1.1c-0.9,0-1.5,0.4-2,1.1
		s-0.7,1.6-0.7,2.6V510.1z"/>
	<path d="M85.7,506.6l-0.9-0.1c-0.5,0-0.9,0.1-1.2,0.3c-0.3,0.2-0.6,0.6-0.8,1v7.2h-1.8V505h1.6l0.2,1.5c0.3-0.5,0.6-0.9,1.1-1.2
		c0.4-0.3,0.9-0.4,1.5-0.4c0.1,0,0.3,0,0.4,0c0.1,0,0.2,0,0.3,0.1L85.7,506.6z"/>
	<path d="M90.1,502.5v2.4H92v1.4h-1.9v6.1c0,0.5,0.1,0.8,0.3,1s0.5,0.3,0.8,0.3c0.1,0,0.2,0,0.4,0s0.2-0.1,0.3-0.1l0.2,1.3
		c-0.1,0.1-0.3,0.2-0.6,0.3c-0.3,0.1-0.5,0.1-0.8,0.1c-0.7,0-1.3-0.2-1.8-0.7c-0.4-0.5-0.7-1.2-0.7-2.1v-6.1h-1.6V505h1.6v-2.4H90.1
		z"/>
	<path d="M98.9,509.6c0-2.5,0.5-4.6,1.5-6.3c1-1.7,2-2.9,3.1-3.5l0.1,0l0.4,1.1c-0.9,0.7-1.6,1.7-2.2,3.2c-0.6,1.5-0.9,3.3-0.9,5.5
		v0.1c0,2.2,0.3,4,0.9,5.5c0.6,1.5,1.4,2.6,2.2,3.3l-0.4,1h-0.1c-1.1-0.6-2.1-1.7-3.1-3.5C99.4,514.2,98.9,512.1,98.9,509.6
		L98.9,509.6z"/>
	<path d="M115.6,513.3c-0.3,0.5-0.9,1-1.7,1.4s-1.8,0.6-3.1,0.6c-1.6,0-3-0.5-4-1.6c-1.1-1-1.6-2.4-1.6-4v-2.8c0-1.7,0.5-3,1.5-4
		s2.3-1.6,3.8-1.6c1.6,0,2.8,0.4,3.7,1.2c0.9,0.8,1.3,1.8,1.4,3l0,0.1h-1.8c-0.1-0.8-0.4-1.4-0.9-2c-0.5-0.5-1.3-0.8-2.4-0.8
		c-1,0-1.9,0.4-2.5,1.2c-0.6,0.8-1,1.8-1,3v2.8c0,1.2,0.4,2.2,1.1,3c0.7,0.8,1.6,1.2,2.7,1.2c0.8,0,1.4-0.1,1.9-0.3
		c0.5-0.2,0.8-0.4,1.1-0.7v-3.1h-3v-1.4h4.8V513.3z"/>
	<path d="M129.1,515.1h-1.8l-6.6-10.5l-0.1,0v10.5h-1.8v-13.6h1.8l6.6,10.5l0.1,0v-10.5h1.8V515.1z"/>
	<path d="M132.5,515.1v-13.6h4.2c1.8,0,3.2,0.5,4.3,1.6c1.1,1.1,1.6,2.5,1.6,4.2v1.9c0,1.7-0.5,3.2-1.6,4.2
		c-1.1,1.1-2.5,1.6-4.3,1.6H132.5z M134.3,502.9v10.7h2.3c1.3,0,2.3-0.4,3-1.2c0.7-0.8,1.1-1.9,1.1-3.2v-1.9c0-1.3-0.4-2.3-1.1-3.2
		s-1.7-1.2-3-1.2H134.3z"/>
	<path d="M148.5,509.6c0,2.5-0.5,4.6-1.5,6.3c-1,1.7-2,2.9-3.1,3.5h-0.1l-0.4-1c0.8-0.7,1.6-1.7,2.2-3.2s1-3.3,1-5.5v-0.1
		c0-2.1-0.3-4-1-5.5c-0.7-1.5-1.4-2.6-2.2-3.3l0.4-1h0.1c1.1,0.6,2.1,1.7,3.1,3.5C148,505,148.5,507.1,148.5,509.6L148.5,509.6z"/>
</g>
<line class="st5" x1="172.5" y1="418.5" x2="227.3" y2="461.3"/>
<line class="st5" x1="182" y1="477.7" x2="210.2" y2="523.1"/>
<line class="st5" x1="122.5" y1="520" x2="141.5" y2="572.5"/>
<line class="st5" x1="196.1" y1="185.8" x2="274.3" y2="203.3"/>
<line class="st5" x1="596.7" y1="185.7" x2="548" y2="208"/>
<line class="st5" x1="585.8" y1="243.6" x2="530.5" y2="209.6"/>
<line class="st5" x1="357.1" y1="341" x2="532.6" y2="381"/>
</svg>
